<?xml version="1.0" encoding="UTF-8" standalone="no"?><!DOCTYPE svg PUBLIC "-//W3C//DTD SVG 1.1//EN" "http://www.w3.org/Graphics/SVG/1.1/DTD/svg11.dtd"><svg width="100%" height="100%" viewBox="0 0 345 684" version="1.1" xmlns="http://www.w3.org/2000/svg" xmlns:xlink="http://www.w3.org/1999/xlink" xml:space="preserve" xmlns:serif="http://www.serif.com/" style="fill-rule:evenodd;clip-rule:evenodd;stroke-linecap:round;stroke-linejoin:round;stroke-miterlimit:1.5;"><path d="M8.625,0l327.75,0c4.76,0 8.625,3.865 8.625,8.625l0,666.75c0,4.76 -3.865,8.625 -8.625,8.625l-327.75,0c-4.76,0 -8.625,-3.865 -8.625,-8.625l0,-666.75c0,-4.76 3.865,-8.625 8.625,-8.625Z" style="fill:#c6c7c1;fill-rule:nonzero;"/><path d="M2,34.63l341.377,-1" style="fill:none;stroke:#000;stroke-width:1px;"/><path d="M2.378,51.463l340.935,0" style="fill:none;stroke:#000;stroke-width:1px;"/><path d="M2.658,66.877l340.393,0" style="fill:none;stroke:#000;stroke-width:1px;"/><path d="M163,358l-147,0l0,311l312,0l0,-308l0,-3l0,-71l-165,0l0,71Z" style="fill:#c6c1c1;fill-rule:nonzero;"/><path d="M51.145,31.5l126.71,0c1.184,0 2.145,0.961 2.145,2.145l0,34.71c0,1.184 -0.961,2.145 -2.145,2.145l-126.71,0c-1.184,0 -2.145,-0.961 -2.145,-2.145l0,-34.71c0,-1.184 0.961,-2.145 2.145,-2.145Z" style="fill:#8d9e9a;fill-rule:nonzero;"/><path d="M51.145,31.5l126.71,0c1.184,0 2.145,0.961 2.145,2.145l0,34.71c0,1.184 -0.961,2.145 -2.145,2.145l-126.71,0c-1.184,0 -2.145,-0.961 -2.145,-2.145l0,-34.71c0,-1.184 0.961,-2.145 2.145,-2.145Z" style="fill:none;stroke:#000;stroke-width:1px;stroke-linecap:square;stroke-linejoin:miter;stroke-miterlimit:3;"/><path d="M22.075,301l116.85,0c1.697,0 3.075,1.378 3.075,3.075l0,34.85c0,1.697 -1.378,3.075 -3.075,3.075l-116.85,0c-1.697,0 -3.075,-1.378 -3.075,-3.075l0,-34.85c0,-1.697 1.378,-3.075 3.075,-3.075Z" style="fill:#8d9e9a;fill-rule:nonzero;"/><path d="M22.075,301l116.85,0c1.697,0 3.075,1.378 3.075,3.075l0,34.85c0,1.697 -1.378,3.075 -3.075,3.075l-116.85,0c-1.697,0 -3.075,-1.378 -3.075,-3.075l0,-34.85c0,-1.697 1.378,-3.075 3.075,-3.075Z" style="fill:none;stroke:#000;stroke-width:1px;stroke-linecap:square;stroke-linejoin:miter;stroke-miterlimit:3;"/><path d="M37.4,134l274.2,0c1.877,0 3.4,1.523 3.4,3.4l0,129.2c0,1.877 -1.523,3.4 -3.4,3.4l-274.2,0c-1.877,0 -3.4,-1.523 -3.4,-3.4l0,-129.2c0,-1.877 1.523,-3.4 3.4,-3.4Z" style="fill-rule:nonzero;"/><path d="M37.4,134l274.2,0c1.877,0 3.4,1.523 3.4,3.4l0,129.2c0,1.877 -1.523,3.4 -3.4,3.4l-274.2,0c-1.877,0 -3.4,-1.523 -3.4,-3.4l0,-129.2c0,-1.877 1.523,-3.4 3.4,-3.4Z" style="fill:none;stroke:#645a5a;stroke-width:1px;stroke-linecap:square;stroke-linejoin:miter;stroke-miterlimit:3;"/><path d="M59.96,330.968l0,-3.24l3.6,0l0,4.068l-4.176,2.412l-9.468,0l-4.176,-2.412l0,-20.736l4.176,-2.412l9.468,0l4.176,2.412l0,4.068l-3.6,0l0,-3.24l-10.62,0l0,19.08l10.62,0Zm19.368,-4.32l-7.236,0l0,4.428l7.236,0l0,-4.428Zm-2.556,7.56l-3.996,0l-4.176,-2.412l0,-5.868l4.176,-2.412l6.552,0l0,-4.356l-8.928,0l0,-3.132l8.244,0l4.176,2.412l0,15.768l-0.936,0l-2.556,-1.476l-2.556,1.476Zm19.62,-0.18l-3.636,0l-4.176,-2.412l0,-23.868l3.492,0l0,23.148l4.32,0l0,3.132Zm17.1,-14.868l-10.008,0l0,11.736l10.008,0l0,3.132l-9.324,0l-4.176,-2.412l0,-13.176l4.176,-2.412l9.324,0l0,3.132Z"/><path d="M87.662,48.264l1.746,0l0,9l-1.746,0l0,-9Zm1.836,-2.214l-1.926,0l0,-1.926l1.926,0l0,1.926Zm8.352,2.124l2.088,1.206l0,7.884l-1.746,0l0,-7.524l-4.158,0l0,7.524l-1.746,0l0,-9.09l1.314,0l0.432,0.738l1.278,-0.738l2.538,0Zm4.968,1.206l2.088,-1.206l2.718,0l1.278,0.738l0,-4.788l1.746,0l0,13.23l-1.314,0l-0.432,-0.738l-1.278,0.738l-2.718,0l-2.088,-1.206l0,-6.768Zm1.746,6.408l4.338,0l0,-6.048l-4.338,0l0,6.048Zm11.052,1.566l-2.088,-1.206l0,-7.884l1.746,0l0,7.524l4.158,0l0,-7.524l1.746,0l0,9.09l-1.314,0l-0.432,-0.738l-1.278,0.738l-2.538,0Zm13.122,-5.436l2.088,1.206l0,2.934l-2.088,1.206l-4.68,0l0,-1.566l5.022,0l0,-2.214l-2.934,0l-2.088,-1.206l0,-2.808l2.088,-1.206l4.5,0l0,1.566l-4.842,0l0,2.088l2.934,0Zm5.904,-2.088l-1.656,0l0,-1.566l1.656,0l0,-1.512l1.746,-1.008l0,2.52l2.16,0l0,1.566l-2.16,0l0,5.868l2.16,0l0,1.566l-1.818,0l-2.088,-1.206l0,-6.228Zm11.448,-1.566l0,1.566l-3.276,0l0,7.434l-1.746,0l0,-9l1.314,0l0.432,0.738l1.278,-0.738l1.998,0Zm1.98,0l1.746,0l0,9l-1.746,0l0,-9Zm1.836,-2.214l-1.926,0l0,-1.926l1.926,0l0,1.926Zm4.536,9.648l5.364,0l0,1.566l-5.022,0l-2.088,-1.206l0,-6.678l2.088,-1.206l2.934,0l2.088,1.206l0,3.996l-5.364,0l0,2.322Zm3.618,-5.958l-3.618,0l0,2.07l3.618,0l0,-2.07Zm9.306,2.178l2.088,1.206l0,2.934l-2.088,1.206l-4.68,0l0,-1.566l5.022,0l0,-2.214l-2.934,0l-2.088,-1.206l0,-2.808l2.088,-1.206l4.5,0l0,1.566l-4.842,0l0,2.088l2.934,0Zm-108.99,-2.088l-1.656,0l0,-1.566l1.656,0l0,-2.934l2.088,-1.206l1.818,0l0,1.566l-2.16,0l0,2.574l2.16,0l0,1.566l-2.16,0l0,7.434l-1.746,0l0,-7.434Zm12.816,0l-5.004,0l0,5.868l5.004,0l0,1.566l-4.662,0l-2.088,-1.206l0,-6.588l2.088,-1.206l4.662,0l0,1.566Zm9.27,0l-5.004,0l0,5.868l5.004,0l0,1.566l-4.662,0l-2.088,-1.206l0,-6.588l2.088,-1.206l4.662,0l0,1.566Z"/></svg>