<?xml version="1.0" standalone="no"?><!-- Generator: Gravit.io --><svg xmlns="http://www.w3.org/2000/svg" xmlns:xlink="http://www.w3.org/1999/xlink" style="isolation:isolate" viewBox="599.612 17.673 82 85.565" width="82" height="85.565"><path d=" M 605.518 17.673 L 599.612 33.383 L 599.612 92.543 L 619.221 92.543 L 619.221 103.238 L 632.423 103.238 L 643.118 92.543 L 659.162 92.543 L 681.612 70.148 L 681.612 17.673 L 605.518 17.673 Z  M 615.656 26.586 L 672.699 26.586 L 672.699 65.804 L 662.003 76.499 L 640.612 76.499 L 629.916 87.195 L 629.916 76.499 L 615.656 76.499 L 615.656 26.586 Z  M 631.699 39.065 L 631.699 64.021 L 642.395 64.021 L 642.395 39.065 L 631.699 39.065 Z  M 649.525 39.065 L 649.525 64.021 L 660.221 64.021 L 660.221 39.065 L 649.525 39.065 Z " fill="rgb(0,0,0)"/></svg>