<?xml version="1.0" standalone="no"?><!-- Generator: Gravit.io --><svg xmlns="http://www.w3.org/2000/svg" xmlns:xlink="http://www.w3.org/1999/xlink" style="isolation:isolate" viewBox="0 0 199 199" width="199" height="199"><defs><clipPath id="_clipPath_yvCbusU2SaCnO8y6kCNBXxz9Q4xZ5uGz"><rect width="199" height="199"/></clipPath></defs><g clip-path="url(#_clipPath_yvCbusU2SaCnO8y6kCNBXxz9Q4xZ5uGz)"><path d=" M 38.935 0 C 17.542 0 0 17.542 0 38.935 L 0 160.065 C 0 181.458 17.542 199 38.935 199 L 160.065 199 C 181.458 199 199 181.458 199 160.065 L 199 38.935 C 199 17.542 181.458 0 160.065 0 L 38.935 0 Z  M 38.935 8.652 L 160.065 8.652 C 176.742 8.652 190.348 22.258 190.348 38.935 L 190.348 160.065 C 190.348 176.742 176.742 190.348 160.065 190.348 L 38.935 190.348 C 22.258 190.348 8.652 176.742 8.652 160.065 L 8.652 38.935 C 8.652 22.258 22.258 8.652 38.935 8.652 Z  M 19.061 58.402 C 18.2 58.402 17.304 59.298 17.304 60.159 L 17.304 64.891 C 17.304 65.757 18.2 66.648 19.061 66.648 L 29.474 66.648 L 74.352 161.822 C 74.794 162.263 75.252 162.635 76.113 162.635 C 76.974 162.635 77.428 162.263 77.87 161.822 L 100.854 119.374 L 121.944 161.822 C 122.381 162.263 122.839 162.635 123.7 162.635 C 124.561 162.635 125.015 162.263 125.457 161.822 L 170.071 66.245 L 179.935 66.245 C 180.8 66.245 181.696 65.346 181.696 64.485 L 181.696 60.159 C 181.696 59.298 180.8 58.402 179.939 58.402 L 147.896 58.402 C 147.035 58.402 146.278 59.298 146.278 60.159 L 146.278 64.891 C 146.278 65.757 147.035 66.648 147.896 66.648 L 158.309 66.648 L 125.863 138.435 L 108.961 103.826 L 129.783 66.648 L 135.463 66.648 C 136.324 66.648 137.081 65.752 137.081 64.891 L 137.081 60.159 C 137.081 59.298 136.324 58.402 135.463 58.402 L 108.961 58.402 C 108.1 58.402 107.339 59.298 107.339 60.159 L 107.339 64.891 C 107.339 65.757 108.1 66.648 108.961 66.648 L 117.613 66.648 L 103.424 92.604 L 91.657 66.648 L 96.524 66.648 C 97.389 66.648 98.146 65.752 98.146 64.891 L 98.146 60.159 C 98.146 59.298 97.389 58.402 96.524 58.402 L 69.624 58.402 C 68.759 58.402 67.863 59.298 67.863 60.159 L 67.863 64.891 C 67.863 65.757 68.763 66.648 69.624 66.648 L 74.352 66.648 L 95.174 108.152 L 78.679 138.435 L 47.587 66.648 L 55.43 66.648 C 56.291 66.648 57.048 65.752 57.048 64.891 L 57.048 60.159 C 57.048 59.298 56.291 58.402 55.43 58.402 L 19.061 58.402 Z " fill="rgb(255,255,255)"/></g></svg>