<?xml version="1.0" encoding="UTF-8" standalone="no"?><!DOCTYPE svg PUBLIC "-//W3C//DTD SVG 1.1//EN" "http://www.w3.org/Graphics/SVG/1.1/DTD/svg11.dtd"><svg width="100%" height="100%" viewBox="0 0 145 115" version="1.1" xmlns="http://www.w3.org/2000/svg" xmlns:xlink="http://www.w3.org/1999/xlink" xml:space="preserve" xmlns:serif="http://www.serif.com/" style="fill-rule:evenodd;clip-rule:evenodd;stroke-linejoin:round;stroke-miterlimit:1.41421;"><path id="Mail-Icon" serif:id="Mail Icon" d="M135.033,114.023l-126.031,0c-4.972,0 -9.002,-4.03 -9.002,-8.999l0,-96.025c0,-4.973 4.03,-8.999 9.002,-8.999l126.031,0c4.971,0 9.001,4.026 9.001,8.999l0,96.025c0,4.969 -4.03,8.999 -9.001,8.999Zm-9.003,-18.005l0,-69.465l-49.625,49.69c-1.218,1.22 -2.823,1.805 -4.419,1.769c-1.596,0.036 -3.202,-0.549 -4.42,-1.769l-49.562,-49.629l0,69.404l108.026,0Zm-8.639,-78.018l-90.811,0l45.406,45.466l45.405,-45.466Z" style="fill:#b53e9a;"/></svg>