<?xml version="1.0" encoding="UTF-8" standalone="no"?><!DOCTYPE svg PUBLIC "-//W3C//DTD SVG 1.1//EN" "http://www.w3.org/Graphics/SVG/1.1/DTD/svg11.dtd"><svg width="100%" height="100%" viewBox="0 0 115 115" version="1.1" xmlns="http://www.w3.org/2000/svg" xmlns:xlink="http://www.w3.org/1999/xlink" xml:space="preserve" xmlns:serif="http://www.serif.com/" style="fill-rule:evenodd;clip-rule:evenodd;stroke-linejoin:round;stroke-miterlimit:1.41421;"><path id="Instagram-Icon" serif:id="Instagram Icon" d="M96.209,114.023l-78.392,0c-9.84,0 -17.817,-7.975 -17.817,-17.815l0,-78.392c0,-9.841 7.977,-17.816 17.817,-17.816l78.392,0c9.84,0 17.816,7.975 17.816,17.816l0,78.392c0,9.84 -7.976,17.815 -17.816,17.815Zm-39.197,-76.014c-10.495,0 -19.003,8.508 -19.003,19.001c0,10.496 8.508,19.006 19.003,19.006c10.496,0 19.005,-8.51 19.005,-19.006c0,-10.493 -8.509,-19.001 -19.005,-19.001Zm42.76,-16.629c0,-3.936 -3.191,-7.126 -7.126,-7.126l-4.751,0c-3.937,0 -7.127,3.19 -7.127,7.126l0,4.748c0,3.937 3.19,7.128 7.127,7.128l4.751,0c3.935,0 7.126,-3.191 7.126,-7.128l0,-4.748Zm0,26.129l-11.047,0c0.909,3.029 1.545,6.178 1.545,9.501c0,18.368 -14.89,33.259 -33.258,33.259c-18.367,0 -33.257,-14.891 -33.257,-33.259c0,-3.323 0.637,-6.472 1.546,-9.501l-11.048,0l0,45.138c0,3.934 3.191,7.124 7.127,7.124l71.266,0c3.935,0 7.126,-3.19 7.126,-7.124l0,-45.138Z" style="fill:#ff6ace;"/></svg>