<?xml version="1.0" encoding="UTF-8" standalone="no"?>
<!-- Created with Inkscape (http://www.inkscape.org/) -->

<svg
   xmlns:dc="http://purl.org/dc/elements/1.1/"
   xmlns:cc="http://creativecommons.org/ns#"
   xmlns:rdf="http://www.w3.org/1999/02/22-rdf-syntax-ns#"
   xmlns:svg="http://www.w3.org/2000/svg"
   xmlns="http://www.w3.org/2000/svg"
   xmlns:sodipodi="http://sodipodi.sourceforge.net/DTD/sodipodi-0.dtd"
   xmlns:inkscape="http://www.inkscape.org/namespaces/inkscape"
   width="108.41069mm"
   height="39.40419mm"
   viewBox="0 0 108.41069 39.40419"
   version="1.1"
   id="svg8"
   inkscape:version="0.92.2 (5c3e80d, 2017-08-06)"
   sodipodi:docname="myrtle.svg">
  <defs
     id="defs2" />
  <sodipodi:namedview
     id="base"
     pagecolor="#ffffff"
     bordercolor="#666666"
     borderopacity="1.0"
     inkscape:pageopacity="0.0"
     inkscape:pageshadow="2"
     inkscape:zoom="0.98994949"
     inkscape:cx="314.13015"
     inkscape:cy="32.791158"
     inkscape:document-units="mm"
     inkscape:current-layer="layer1"
     showgrid="false"
     inkscape:window-width="1920"
     inkscape:window-height="1017"
     inkscape:window-x="1912"
     inkscape:window-y="-8"
     inkscape:window-maximized="1" />
  <metadata
     id="metadata5">
    <rdf:RDF>
      <cc:Work
         rdf:about="">
        <dc:format>image/svg+xml</dc:format>
        <dc:type
           rdf:resource="http://purl.org/dc/dcmitype/StillImage" />
        <dc:title></dc:title>
      </cc:Work>
    </rdf:RDF>
  </metadata>
  <g
     inkscape:label="Layer 1"
     inkscape:groupmode="layer"
     id="layer1"
     transform="translate(-51.499639,-58.404439)">
    <path
       style="fill:#000000;stroke-width:0.26458335"
       d="m 69.500528,97.808599 c -0.130019,-0.009 -4.104427,-3.04086 -8.832019,-6.73687 -4.727592,-3.696 -8.630826,-6.82562 -8.673854,-6.95471 -0.04303,-0.12908 1.290004,-1.17538 2.962295,-2.32511 1.67229,-1.14973 3.045447,-2.1548 3.051458,-2.23349 0.006,-0.0787 -1.470097,-1.26932 -3.280241,-2.64584 -1.810144,-1.37651 -3.262707,-2.60991 -3.227916,-2.74088 0.03479,-0.13097 5.048157,-3.73261 11.140815,-8.00365 6.092657,-4.27103 11.14686,-7.76466 11.231561,-7.76361 0.0847,10e-4 3.368691,2.51453 7.297754,5.58552 3.929062,3.07098 7.882998,6.13598 8.786527,6.81111 0.903525,0.67513 1.646343,1.28704 1.650703,1.3598 0.0044,0.0728 -1.411684,1.12773 -3.146766,2.34438 l -3.154696,2.2121 3.223781,2.51618 c 1.773082,1.38389 3.314396,2.59838 3.425145,2.69884 0.110747,0.10047 -1.165659,1.12791 -2.836457,2.28319 -1.670799,1.15528 -3.041333,2.16689 -3.045632,2.24802 -0.0043,0.0811 0.527968,0.52516 1.182811,0.98673 0.654844,0.46158 1.190625,1.01353 1.190625,1.22656 0,0.21303 -0.264617,0.57267 -0.588039,0.7992 -0.323418,0.22653 -0.723376,0.41188 -0.888791,0.41188 -0.165412,0 -0.851233,-0.48455 -1.524042,-1.07678 -0.769093,-0.67699 -1.347788,-1.00154 -1.558605,-0.87412 -0.184422,0.11147 -3.443623,2.38196 -7.242667,5.04554 -3.799044,2.66357 -7.013731,4.83528 -7.14375,4.82601 z m 0.205044,-1.89824 c 0.107646,-0.0381 4.541226,-3.10538 9.852401,-6.81616 5.311177,-3.71078 9.662425,-6.81832 9.669441,-6.90565 0.007,-0.0873 -1.181293,-1.07837 -2.64069,-2.20232 -1.459396,-1.12395 -2.757098,-2.00501 -2.883781,-1.95789 -0.126685,0.0471 0.95172,0.99972 2.396451,2.11692 l 2.626788,2.03127 -0.867484,0.64559 c -0.477115,0.35508 -4.717899,3.34031 -9.423964,6.63384 -4.706064,3.29353 -8.65909,5.98824 -8.784505,5.98824 -0.125413,0 -3.002028,-2.16543 -6.392478,-4.81206 -3.39045,-2.64663 -6.724531,-5.25323 -7.409069,-5.79245 l -1.244616,-0.98038 2.373352,-1.65573 c 1.305344,-0.91065 2.318365,-1.71071 2.251158,-1.77792 -0.06721,-0.0672 -1.268012,0.67668 -2.668455,1.65307 -1.400443,0.9764 -2.50823,1.81219 -2.46175,1.85731 0.04648,0.0451 3.533078,2.77339 7.747997,6.06282 4.214918,3.28944 7.751561,5.94961 7.859204,5.9115 z m -0.08202,-2.07278 c 0.05217,0.0105 2.850134,-1.90933 6.217709,-4.26632 3.367577,-2.35699 7.109743,-4.98547 8.315926,-5.84107 l 2.193059,-1.55564 -2.014095,-1.58809 c -1.107755,-0.87345 -2.163755,-1.53067 -2.346672,-1.46047 -0.182917,0.0702 -3.159921,2.11615 -6.615568,4.54659 l -6.282994,4.41897 -0.971729,-0.76937 c -0.53445,-0.42316 -2.549688,-1.99368 -4.478305,-3.49005 l -3.506578,-2.72067 -1.736876,1.23941 c -0.955282,0.68168 -1.662923,1.31693 -1.572536,1.41168 0.09039,0.0947 2.985723,2.39609 6.434079,5.11409 3.448356,2.718 6.312418,4.95042 6.36458,4.96094 z m 0.790729,-8.53803 c 0.677103,-0.49038 4.088595,-2.89723 7.581096,-5.34856 3.4925,-2.45133 7.293189,-5.11763 8.445976,-5.9251 1.152787,-0.80748 2.128031,-1.58721 2.16721,-1.73273 0.03918,-0.14552 -3.317002,-2.88396 -7.458173,-6.08542 -4.141174,-3.20146 -7.695375,-5.80607 -7.898228,-5.78803 -0.202853,0.018 -4.665724,3.04508 -9.917492,6.72675 -5.251768,3.68168 -9.548669,6.77521 -9.548669,6.87452 0,0.0993 3.464366,2.87822 7.698591,6.17537 l 7.69859,5.99481 z m -1.150155,0.23346 c -0.14552,0.044 -3.56301,-2.50028 -7.594421,-5.6539 -4.031411,-3.15363 -7.335396,-5.80889 -7.342188,-5.90057 -0.0068,-0.0917 4.117356,-3.06826 9.164774,-6.61459 5.047418,-3.54633 9.311169,-6.5305 9.475005,-6.63148 0.170309,-0.10497 3.350416,2.19788 7.425481,5.37712 3.92018,3.0584 7.284204,5.71289 7.475609,5.89887 0.28475,0.27669 -1.350502,1.52939 -8.995834,6.89137 -5.139113,3.60427 -9.462905,6.58919 -9.608426,6.63318 z m 11.524952,-11.52847 c 0.51789,0.005 1.158041,-0.14984 1.422561,-0.34327 0.397547,-0.29069 0.427932,-0.45072 0.175226,-0.92291 -0.168146,-0.31419 -0.59994,-0.64509 -0.959541,-0.73534 -0.359603,-0.0903 -0.948042,-0.0903 -1.307645,0 -0.3596,0.0902 -0.78573,0.41057 -0.946954,0.71182 -0.237456,0.44369 -0.201213,0.6174 0.190799,0.9145 0.266165,0.20173 0.907664,0.37057 1.425554,0.3752 z m -1.97239,-1.65075 c 0.08792,-0.0879 0.09732,-0.31612 0.02088,-0.50712 -0.08446,-0.21106 -0.147156,-0.14837 -0.159851,0.15986 -0.01148,0.27891 0.05104,0.43518 0.138965,0.34726 z m 3.719542,-0.39136 c 0.0734,-0.1819 0.0734,-0.47956 0,-0.66146 -0.0734,-0.1819 -0.133453,-0.0331 -0.133453,0.33073 0,0.3638 0.06006,0.51263 0.133453,0.33073 z m -3.085645,-0.19844 c 0.145521,-0.0899 0.264583,-0.33509 0.264583,-0.54478 0,-0.20969 -0.119062,-0.38126 -0.264583,-0.38126 -0.145521,0 -0.264583,0.24515 -0.264583,0.54478 0,0.29963 0.119062,0.4712 0.264583,0.38126 z m 1.711489,-0.13229 c 0.07733,0 0.140594,-0.32147 0.140594,-0.71438 0,-0.53207 -0.07648,-0.63789 -0.299714,-0.41465 -0.164844,0.16484 -0.228114,0.48631 -0.140597,0.71437 0.08752,0.22806 0.222387,0.41466 0.299717,0.41466 z m 0.669761,0 c 0.145521,0 0.264583,-0.17859 0.264583,-0.39688 0,-0.21828 -0.119062,-0.39687 -0.264583,-0.39687 -0.145521,0 -0.264583,0.17859 -0.264583,0.39687 0,0.21829 0.119062,0.39688 0.264583,0.39688 z m -1.5875,-0.26458 c 0.145521,0 0.264583,-0.24516 0.264583,-0.54479 0,-0.29962 -0.119062,-0.47119 -0.264583,-0.38126 -0.145521,0.0899 -0.264583,0.33509 -0.264583,0.54479 0,0.20969 0.119062,0.38126 0.264583,0.38126 z m -3.915053,-0.54708 c 0.247814,0.01 0.75383,-0.12026 1.124479,-0.28914 0.37065,-0.16888 0.673907,-0.52188 0.673907,-0.78444 0,-0.26257 -0.230298,-0.60064 -0.511773,-0.75128 -0.281474,-0.15065 -0.825082,-0.2739 -1.208018,-0.2739 -0.382937,0 -0.926545,0.12325 -1.208019,0.2739 -0.281475,0.15064 -0.511773,0.48963 -0.511773,0.75331 0,0.26369 0.26789,0.60863 0.595312,0.76654 0.327422,0.15791 0.798071,0.29516 1.045885,0.30501 z m 2.239359,-1.65778 c 0.09701,-0.097 0.09701,-0.25577 0,-0.35278 -0.09701,-0.097 -0.176389,-0.0176 -0.176389,0.17639 0,0.19402 0.07938,0.2734 0.176389,0.17639 z m -4.233333,-0.26459 c 0.09701,-0.097 0.09701,-0.25576 0,-0.35278 -0.09701,-0.097 -0.17639,-0.0176 -0.17639,0.17639 0,0.19403 0.07938,0.27341 0.17639,0.17639 z m 0.61736,-0.30868 c 0.145521,-0.0899 0.264584,-0.40165 0.264584,-0.69269 0,-0.29104 -0.119063,-0.45558 -0.264584,-0.36564 -0.145521,0.0899 -0.264583,0.40164 -0.264583,0.69269 0,0.29104 0.119062,0.45558 0.264583,0.36564 z m 3.085645,-0.0661 c 0.0734,-0.18191 0.0734,-0.47956 0,-0.66146 -0.0734,-0.1819 -0.133453,-0.0331 -0.133453,0.33073 0,0.3638 0.06006,0.51263 0.133453,0.33073 z m -2.291895,-0.33073 c 0.145521,0 0.264584,-0.23813 0.264584,-0.52917 0,-0.29104 -0.119063,-0.52917 -0.264584,-0.52917 -0.145521,0 -0.264583,0.23813 -0.264583,0.52917 0,0.29104 0.119062,0.52917 0.264583,0.52917 z m 0.79375,0 c 0.145521,0 0.264584,-0.23813 0.264584,-0.52917 0,-0.29104 -0.119063,-0.52917 -0.264584,-0.52917 -0.145521,0 -0.264583,0.23813 -0.264583,0.52917 0,0.29104 0.119062,0.52917 0.264583,0.52917 z m 0.79375,0 c 0.145521,0 0.264584,-0.1786 0.264584,-0.39688 0,-0.21828 -0.119063,-0.39687 -0.264584,-0.39687 -0.145521,0 -0.264583,0.17859 -0.264583,0.39687 0,0.21828 0.119062,0.39688 0.264583,0.39688 z m -5.242745,-0.54708 c 0.245189,0.01 0.751205,-0.0982 1.124479,-0.24012 0.416137,-0.15822 0.678683,-0.46265 0.678683,-0.78696 0,-0.31755 -0.310505,-0.68949 -0.776989,-0.93072 -0.427344,-0.22099 -0.992891,-0.32501 -1.256771,-0.23116 -0.263879,0.0938 -0.688141,0.34959 -0.942803,0.5683 -0.254661,0.21872 -0.463021,0.53961 -0.463021,0.7131 0,0.17349 0.267891,0.44464 0.595313,0.60255 0.327422,0.15791 0.795922,0.29516 1.041109,0.30501 z m 2.244135,-1.65778 c 0.09701,-0.097 0.09701,-0.25577 0,-0.35278 -0.09701,-0.097 -0.17639,-0.0176 -0.17639,0.17639 0,0.19402 0.07938,0.2734 0.17639,0.17639 z m -4.233334,-0.26459 c 0.09701,-0.097 0.09701,-0.25576 0,-0.35278 -0.09701,-0.097 -0.176389,-0.0176 -0.176389,0.17639 0,0.19403 0.07937,0.27341 0.176389,0.17639 z m 0.617361,-0.30868 c 0.145521,-0.0899 0.264583,-0.40165 0.264583,-0.69269 0,-0.29104 -0.119062,-0.45558 -0.264583,-0.36564 -0.145521,0.0899 -0.264584,0.40164 -0.264584,0.69269 0,0.29104 0.119063,0.45558 0.264584,0.36564 z m 3.085645,-0.0661 c 0.0734,-0.18191 0.0734,-0.47956 0,-0.66146 -0.0734,-0.1819 -0.133453,-0.0331 -0.133453,0.33073 0,0.3638 0.06005,0.51263 0.133453,0.33073 z m -2.291895,-0.33073 c 0.145521,0 0.264583,-0.24516 0.264583,-0.54479 0,-0.29962 -0.119062,-0.47119 -0.264583,-0.38126 -0.145521,0.0899 -0.264584,0.33509 -0.264584,0.54479 0,0.20969 0.119063,0.38126 0.264584,0.38126 z m 0.941657,0 c 0.06417,0 0.114853,-0.26789 0.112625,-0.59532 -0.0032,-0.46479 -0.05734,-0.51107 -0.247126,-0.21107 -0.133691,0.21134 -0.184372,0.47923 -0.112625,0.59532 0.07175,0.11608 0.182954,0.21107 0.247126,0.21107 z m 0.645843,0 c 0.145521,0 0.264583,-0.1786 0.264583,-0.39688 0,-0.21828 -0.119062,-0.39687 -0.264583,-0.39687 -0.145521,0 -0.264584,0.17859 -0.264584,0.39687 0,0.21828 0.119063,0.39688 0.264584,0.39688 z m 23.934629,28.52074 c -0.733194,0.0429 -1.417804,-0.007 -1.521354,-0.11025 -0.103552,-0.10355 -0.188275,-3.30131 -0.188275,-7.10613 v -6.91794 l 0.742083,-0.71096 c 0.720349,-0.69014 0.83427,-0.71096 3.890015,-0.71096 3.127477,0 3.153157,0.005 3.954267,0.78075 l 0.80634,0.78074 -0.0797,3.84946 -0.0797,3.84947 h -3.02071 -3.020721 l -0.07454,3.10885 -0.07454,3.10885 z m 2.920579,-9.47074 H 101.411 v -1.45521 -1.45521 h -1.455207 -1.455208 v 1.45521 1.45521 z m 11.046357,9.4651 -4.56406,0.0724 v -7.81146 -7.81145 h 4.64341 4.64341 l -0.0794,1.52135 -0.0794,1.52136 -3.10885,0.0745 -3.10886,0.0745 v 1.44682 1.44681 h 3.175 3.175 v 1.5875 1.5875 h -3.1882 -3.1882 l 0.0793,1.52135 0.0794,1.52135 3.1218,0.0747 3.1218,0.0746 -0.0791,1.51285 -0.0791,1.51284 z m 10.28749,0.0599 c -2.00797,0 -3.73023,-0.0794 -3.82725,-0.17639 -0.097,-0.097 -0.17639,-3.60936 -0.17639,-7.80521 v -7.62882 h 4.07753 4.07752 l 0.68498,0.81405 0.68497,0.81405 v 6.17 6.17 l -0.93525,0.82116 -0.93524,0.82116 z m 0.75886,-3.175 h 1.5875 v -4.63021 -4.63021 h -1.5875 -1.5875 v 4.63021 4.63021 z m 7.80521,3.175 h -1.45521 v -7.13173 -7.13172 l 0.67349,-0.67349 c 0.64839,-0.64839 0.79442,-0.67348 3.91925,-0.67348 3.21564,0 3.2524,0.007 3.96121,0.74676 l 0.71544,0.74676 -0.0706,6.9923 -0.0706,6.9923 h -1.45521 -1.45521 l -0.0745,-3.10885 -0.0745,-3.10885 h -1.57911 -1.5791 v 3.175 3.175 z m 3.04271,-9.525 h 1.5875 v -1.45521 -1.45521 h -1.5875 -1.5875 v 1.45521 1.45521 z m 11.22878,9.46488 c -2.48267,0.0397 -4.59603,-0.01 -4.69636,-0.11024 -0.10033,-0.10033 -0.18242,-3.61539 -0.18242,-7.81124 v -7.62882 h 1.5875 1.5875 v 6.21771 6.21771 h 3.1882 3.18821 l -0.0793,1.52135 -0.0794,1.52135 z m 10.00403,0.053 -3.77031,0.007 v -1.5875 -1.5875 h 3.04271 3.04271 v -1.5875 -1.5875 h -2.30063 c -2.13622,0 -2.35366,-0.0508 -3.04271,-0.71096 -0.73316,-0.70242 -0.74208,-0.74951 -0.74208,-3.91925 0,-3.16975 0.009,-3.21683 0.74208,-3.91925 0.73901,-0.70802 0.75878,-0.71096 4.77571,-0.71096 h 4.03362 l -0.0794,1.52135 -0.0794,1.52136 -3.10885,0.0745 -3.10886,0.0745 v 1.44682 1.44681 h 2.32935 c 2.28753,0 2.34453,0.0157 3.175,0.87249 l 0.84565,0.87249 v 2.96041 2.9604 l -0.99219,0.92244 -0.99218,0.92245 -3.77032,0.007 z m -66.112078,-3.16796 c -0.200464,0 -0.36448,-0.11488 -0.36448,-0.25528 0,-0.1404 0.22247,-0.37433 0.49438,-0.51986 0.271907,-0.14552 0.568531,-0.19043 0.659162,-0.0998 0.09063,0.0906 0.03217,0.32457 -0.1299,0.51986 -0.162076,0.19529 -0.458701,0.35508 -0.659162,0.35508 z m 8.895937,-13.75834 h -1.5875 v -7.80521 -7.8052 h 1.590837 1.590836 l 0.652111,1.47453 c 0.35866,0.811 0.74987,1.41413 0.869347,1.34028 0.11947,-0.0738 0.49972,-0.73738 0.84498,-1.47453 l 0.62776,-1.34028 h 1.54227 1.54227 v 7.8052 7.80521 h -1.5875 -1.5875 l -0.012,-4.43177 -0.012,-4.43177 -0.62248,1.19063 c -0.34236,0.65484 -0.72393,1.13321 -0.847927,1.06303 -0.12401,-0.0702 -0.48397,-0.66548 -0.79991,-1.32291 l -0.574438,-1.19533 -0.02087,4.56406 -0.02087,4.56406 z m 14.022911,0 h -1.5875 v -3.25016 c 0,-3.23622 -0.006,-3.26881 -1.45521,-7.59775 -0.80036,-2.39118 -1.4552,-4.44689 -1.4552,-4.56825 0,-0.12137 0.67851,-0.18495 1.5078,-0.14131 l 1.50781,0.0793 0.72334,2.38125 c 0.39783,1.30969 0.73822,2.44078 0.75643,2.51354 0.0182,0.0728 0.38518,-0.99065 0.81549,-2.36312 0.43032,-1.37248 0.82666,-2.53969 0.88076,-2.59379 0.0541,-0.0541 0.75449,-0.0623 1.55641,-0.0181 l 1.45805,0.0802 -1.55401,4.63021 c -1.54117,4.59194 -1.55406,4.6559 -1.56034,7.73906 l -0.006,3.10885 z m 7.9243,0 h -1.5743 v -6.8933 -6.8933 l 0.72761,-0.9119 0.7276,-0.9119 3.18924,-10e-6 h 3.18925 l 0.84565,0.87249 0.84565,0.87249 v 3.75772 3.75771 h -2.38125 c -1.30968,0 -2.38125,0.0586 -2.38125,0.1302 0,0.0716 0.97217,1.35153 2.16037,2.84427 1.18821,1.49274 2.27435,2.8629 2.41365,3.0448 0.19739,0.25776 -0.18828,0.33073 -1.74796,0.33073 h -2.00123 l -1.14002,-1.46248 -1.14001,-1.46248 -0.0793,1.46248 -0.0794,1.46248 z m 3.12206,-9.31336 1.52135,-0.0793 0.0794,-1.52135 0.0794,-1.52135 h -1.6007 -1.60071 v 1.6007 1.6007 z m 10.91406,9.31336 h -1.5875 v -6.21771 -6.2177 h -1.45521 -1.45521 v -1.5875 -1.5875 h 4.63021 4.63021 v 1.5875 1.5875 h -1.5875 -1.5875 v 6.2177 6.21771 z m 11.1257,0 h -4.7757 v -7.80521 -7.8052 h 1.5875 1.5875 v 6.20931 6.20931 l 3.10886,0.0745 3.10885,0.0745 0.0794,1.52136 0.0793,1.52135 z m 11.0993,0 h -4.7625 v -7.80521 -7.8052 h 4.7625 4.7625 v 1.5875 1.5875 h -3.175 -3.175 v 1.5875 1.5875 h 3.175 3.175 v 1.4552 1.45521 h -3.175 -3.175 v 1.5875 1.5875 h 3.175 3.175 v 1.5875 1.5875 z"
       id="path3710"
       inkscape:connector-curvature="0" />
  </g>
</svg>
