<?xml version="1.0" encoding="UTF-8" standalone="no"?><!DOCTYPE svg PUBLIC "-//W3C//DTD SVG 1.1//EN" "http://www.w3.org/Graphics/SVG/1.1/DTD/svg11.dtd"><svg width="50px" height="71px" version="1.1" xmlns="http://www.w3.org/2000/svg" xmlns:xlink="http://www.w3.org/1999/xlink" xml:space="preserve" xmlns:serif="http://www.serif.com/" style="fill-rule:evenodd;clip-rule:evenodd;stroke-linejoin:round;stroke-miterlimit:1.41421;"><g transform="matrix(1,0,0,1,-1598,-144.5)"><g transform="matrix(0.985567,0,0,0.985567,-2749.4,106.517)"><g id="Mug" transform="matrix(1.01825,0,0,1.01825,770.526,-81.9484)"><path d="M3584.93,135.175L3585.12,135.211L3585.3,135.265L3585.47,135.335L3585.64,135.422L3585.8,135.524L3585.95,135.642L3586.09,135.773L3586.21,135.916L3586.32,136.07L3586.42,136.235L3586.5,136.407L3586.56,136.586L3586.6,136.771L3586.63,136.958L3586.64,137.148L3586.64,159.595L3586.64,159.941L3586.64,160.291L3586.65,160.649L3586.66,161.012L3586.67,161.758L3586.68,162.521L3586.69,162.91L3586.7,163.301L3586.7,163.695L3586.7,164.092L3586.7,164.487L3586.7,164.688L3586.7,164.889L3586.69,165.089L3586.69,165.288L3586.68,165.49L3586.68,165.69L3586.67,165.89L3586.66,166.09L3586.65,166.291L3586.64,166.492L3586.63,166.691L3586.61,166.89L3586.6,167.091L3586.58,167.29L3586.56,167.489L3586.54,167.687L3586.52,167.885L3586.49,168.084L3586.46,168.281L3586.43,168.477L3586.4,168.674L3586.37,168.869L3586.33,169.064L3586.3,169.258L3586.25,169.452L3586.21,169.644L3586.16,169.837L3586.11,170.028L3586.06,170.218L3586.01,170.408L3585.95,170.591L3585.91,170.689L3585.88,170.784L3585.85,170.878L3585.82,170.97L3585.78,171.063L3585.75,171.156L3585.71,171.247L3585.67,171.34L3585.63,171.432L3585.59,171.521L3585.55,171.613L3585.51,171.704L3585.47,171.794L3585.43,171.858L3585.43,171.865L3585.43,171.868L3585.43,171.873L3585.43,171.888L3585.42,171.908L3585.42,171.929L3585.41,171.953L3585.41,171.986L3585.41,172.021L3585.4,172.058L3585.4,172.1L3585.4,172.145L3585.4,172.193L3585.4,172.245L3585.4,172.302L3585.4,172.36L3585.4,172.421L3585.4,172.486L3585.4,172.548L3585.41,172.691L3585.42,172.84L3585.43,172.995L3585.46,173.333L3585.47,173.509L3585.49,173.692L3585.51,173.881L3585.52,174.076L3585.53,174.273L3585.53,174.378L3585.53,174.482L3585.54,174.588L3585.54,174.695L3585.54,174.803L3585.54,174.913L3585.53,175.024L3585.53,175.138L3585.52,175.254L3585.51,175.371L3585.5,175.489L3585.48,175.609L3585.46,175.733L3585.44,175.856L3585.41,175.982L3585.38,176.111L3585.35,176.24L3585.31,176.373L3585.26,176.506L3585.21,176.639L3585.15,176.775L3585.1,176.886L3585.06,176.964L3585.03,177.021L3585.01,177.08L3584.98,177.14L3584.95,177.201L3584.93,177.261L3584.87,177.397L3584.82,177.535L3584.76,177.678L3584.71,177.827L3584.65,177.98L3584.59,178.139L3584.54,178.301L3584.42,178.641L3584.3,178.99L3584.24,179.173L3584.17,179.356L3584.1,179.543L3584.03,179.731L3583.95,179.921L3583.87,180.11L3583.83,180.212L3583.78,180.309L3583.74,180.405L3583.7,180.503L3583.65,180.602L3583.6,180.701L3583.55,180.799L3583.5,180.897L3583.44,180.998L3583.39,181.097L3583.33,181.195L3583.27,181.295L3583.21,181.395L3583.14,181.493L3583.08,181.591L3583.01,181.689L3582.94,181.789L3582.87,181.886L3582.79,181.982L3582.71,182.078L3582.63,182.174L3582.55,182.268L3582.46,182.362L3582.37,182.452L3582.31,182.511L3582.24,182.573L3582.14,182.672L3582.02,182.769L3581.91,182.86L3581.8,182.946L3581.69,183.028L3581.59,183.107L3581.48,183.184L3581.28,183.326L3581.09,183.465L3581,183.529L3580.92,183.592L3580.84,183.652L3580.76,183.71L3580.69,183.764L3580.63,183.815L3580.58,183.862L3580.54,183.895L3580.51,184.005L3580.44,184.182L3580.36,184.352L3580.26,184.514L3580.15,184.665L3580.02,184.805L3579.88,184.932L3579.72,185.045L3579.56,185.143L3579.39,185.225L3579.21,185.291L3579.03,185.339L3578.84,185.37L3578.65,185.382L3578.46,185.377L3578.28,185.354L3578.09,185.313L3577.91,185.254L3577.74,185.179L3577.57,185.087L3577.41,184.98L3577.27,184.859L3577.13,184.724L3577.01,184.577L3576.91,184.42L3576.82,184.253L3576.74,184.078L3576.69,183.898L3576.65,183.712L3576.63,183.524L3576.62,183.334L3576.63,183.233L3576.64,183.077L3576.66,182.926L3576.69,182.781L3576.72,182.646L3576.77,182.511L3576.81,182.382L3576.86,182.264L3576.91,182.149L3576.97,182.043L3577.03,181.941L3577.09,181.842L3577.15,181.75L3577.21,181.664L3577.27,181.58L3577.33,181.5L3577.39,181.424L3577.46,181.352L3577.52,181.283L3577.58,181.216L3577.64,181.152L3577.7,181.09L3577.77,181.031L3577.83,180.97L3577.95,180.864L3578.07,180.761L3578.19,180.663L3578.31,180.57L3578.42,180.481L3578.53,180.396L3578.64,180.315L3578.75,180.236L3578.95,180.093L3579.14,179.959L3579.22,179.899L3579.3,179.843L3579.36,179.791L3579.42,179.745L3579.47,179.704L3579.51,179.672L3579.54,179.643L3579.54,179.641L3579.55,179.636L3579.58,179.609L3579.6,179.581L3579.63,179.552L3579.65,179.522L3579.68,179.49L3579.71,179.455L3579.73,179.419L3579.76,179.383L3579.79,179.345L3579.82,179.303L3579.84,179.26L3579.87,179.216L3579.9,179.171L3579.93,179.122L3579.95,179.072L3579.98,179.022L3580.01,178.968L3580.04,178.913L3580.07,178.857L3580.09,178.8L3580.12,178.74L3580.15,178.677L3580.18,178.614L3580.2,178.554L3580.26,178.417L3580.32,178.277L3580.37,178.133L3580.43,177.983L3580.48,177.829L3580.54,177.672L3580.65,177.339L3580.77,176.997L3580.83,176.82L3580.9,176.641L3580.96,176.458L3581.03,176.273L3581.1,176.087L3581.18,175.898L3581.25,175.711L3581.3,175.611L3581.34,175.514L3581.38,175.418L3581.43,175.321L3581.47,175.225L3581.51,175.15L3581.51,175.142L3581.52,175.141L3581.52,175.131L3581.52,175.118L3581.53,175.099L3581.53,175.076L3581.53,175.05L3581.54,175.019L3581.54,174.984L3581.55,174.945L3581.55,174.905L3581.55,174.859L3581.55,174.809L3581.55,174.757L3581.55,174.702L3581.55,174.643L3581.55,174.582L3581.55,174.519L3581.55,174.456L3581.54,174.313L3581.53,174.164L3581.52,174.007L3581.5,173.843L3581.49,173.671L3581.46,173.314L3581.44,173.124L3581.43,172.93L3581.42,172.733L3581.42,172.626L3581.41,172.524L3581.41,172.419L3581.41,172.312L3581.41,172.206L3581.41,172.096L3581.42,171.983L3581.42,171.87L3581.43,171.755L3581.44,171.637L3581.45,171.519L3581.47,171.401L3581.49,171.277L3581.51,171.151L3581.53,171.028L3581.56,170.9L3581.6,170.768L3581.64,170.637L3581.68,170.505L3581.74,170.37L3581.79,170.236L3581.85,170.125L3581.88,170.053L3581.9,170.005L3581.93,169.958L3581.95,169.909L3581.97,169.857L3581.99,169.806L3582.01,169.755L3582.03,169.701L3582.06,169.647L3582.08,169.592L3582.1,169.536L3582.12,169.48L3582.14,169.423L3582.15,169.368L3582.19,169.243L3582.23,169.12L3582.26,168.994L3582.3,168.864L3582.33,168.732L3582.36,168.596L3582.39,168.457L3582.42,168.315L3582.45,168.17L3582.47,168.022L3582.49,167.873L3582.52,167.72L3582.54,167.565L3582.56,167.409L3582.58,167.249L3582.59,167.087L3582.61,166.923L3582.63,166.757L3582.64,166.591L3582.65,166.421L3582.66,166.249L3582.67,166.077L3582.68,165.903L3582.69,165.728L3582.69,165.55L3582.7,165.371L3582.7,165.193L3582.71,165.012L3582.71,164.83L3582.71,164.648L3582.72,164.466L3582.72,164.094L3582.72,163.722L3582.71,163.347L3582.71,162.971L3582.7,162.595L3582.68,161.838L3582.67,161.086L3582.66,160.71L3582.66,160.338L3582.65,159.967L3582.65,159.602L3582.65,137.148L3582.66,136.958L3582.69,136.771L3582.73,136.586L3582.8,136.407L3582.88,136.235L3582.97,136.07L3583.08,135.916L3583.2,135.773L3583.34,135.642L3583.49,135.524L3583.65,135.422L3583.82,135.335L3583.99,135.265L3584.18,135.211L3584.36,135.175L3584.55,135.157L3584.74,135.157L3584.93,135.175ZM3580.6,183.536L3580.61,183.464L3580.61,183.446L3580.6,183.536Z"/><path d="M3612.32,134.159L3612.51,134.188L3612.7,134.236L3612.89,134.302L3613.06,134.386L3613.23,134.487L3613.39,134.603L3613.53,134.735L3613.66,134.88L3613.78,135.037L3613.88,135.205L3613.97,135.382L3614.03,135.566L3614.08,135.756L3614.11,135.949L3614.12,136.145L3614.12,136.585L3614.11,137.028L3614.11,137.472L3614.11,137.916L3614.1,138.36L3614.1,138.806L3614.09,139.251L3614.09,139.699L3614.07,140.592L3614.05,141.487L3614.03,142.385L3614.01,143.284L3613.99,144.184L3613.96,145.086L3613.93,145.988L3613.9,146.892L3613.87,147.797L3613.84,148.702L3613.78,150.514L3613.72,152.328L3613.69,153.234L3613.66,154.141L3613.63,155.048L3613.6,155.954L3613.57,156.859L3613.55,157.764L3613.53,158.668L3613.51,159.571L3613.49,160.473L3613.47,161.374L3613.47,161.823L3613.46,162.272L3613.46,162.721L3613.45,163.17L3613.45,163.618L3613.45,164.066L3613.45,164.514L3613.45,164.964L3613.45,165.195L3613.44,165.438L3613.44,165.937L3613.43,166.458L3613.43,166.722L3613.43,166.99L3613.43,167.258L3613.43,167.527L3613.43,167.796L3613.44,168.064L3613.45,168.33L3613.46,168.596L3613.46,168.722L3613.47,168.851L3613.47,168.979L3613.48,169.104L3613.49,169.228L3613.5,169.35L3613.51,169.471L3613.52,169.59L3613.53,169.705L3613.55,169.819L3613.56,169.93L3613.57,170.039L3613.59,170.145L3613.61,170.247L3613.62,170.345L3613.64,170.44L3613.66,170.532L3613.68,170.621L3613.69,170.704L3613.71,170.782L3613.73,170.858L3613.75,170.927L3613.77,170.99L3613.79,171.049L3613.81,171.102L3613.83,171.149L3613.85,171.197L3613.86,171.209L3613.86,171.224L3613.87,171.239L3613.88,171.252L3613.88,171.263L3613.89,171.273L3613.89,171.285L3613.9,171.293L3613.99,171.386L3614.1,171.519L3614.19,171.651L3614.27,171.785L3614.34,171.917L3614.4,172.048L3614.45,172.17L3614.49,172.29L3614.53,172.405L3614.56,172.517L3614.58,172.624L3614.6,172.725L3614.61,172.825L3614.62,172.916L3614.63,173.006L3614.64,173.095L3614.64,173.179L3614.65,173.267L3614.65,173.41L3614.65,173.555L3614.64,173.691L3614.64,173.819L3614.63,173.942L3614.61,174.156L3614.6,174.349L3614.59,174.427L3614.59,174.436L3614.6,174.448L3614.65,174.534L3614.69,174.616L3614.74,174.701L3614.77,174.786L3614.81,174.871L3614.84,174.951L3614.87,175.03L3614.89,175.114L3614.91,175.187L3614.94,175.273L3614.97,175.414L3615,175.558L3615.02,175.698L3615.03,175.833L3615.04,175.966L3615.05,176.093L3615.05,176.217L3615.05,176.341L3615.05,176.461L3615.05,176.578L3615.04,176.695L3615.03,176.81L3615.02,176.921L3615.01,177.033L3615,177.145L3614.99,177.257L3614.96,177.467L3614.93,177.678L3614.9,177.885L3614.86,178.086L3614.8,178.471L3614.77,178.654L3614.74,178.83L3614.72,178.994L3614.7,179.153L3614.69,179.224L3614.68,179.294L3614.67,179.358L3614.67,179.42L3614.66,179.477L3614.66,179.53L3614.66,179.578L3614.66,179.618L3614.66,179.642L3614.69,179.705L3614.75,179.815L3614.81,179.923L3614.88,180.031L3614.94,180.139L3615.01,180.246L3615.08,180.352L3615.14,180.456L3615.22,180.56L3615.29,180.663L3615.37,180.765L3615.44,180.866L3615.52,180.964L3615.6,181.062L3615.68,181.16L3615.76,181.256L3615.84,181.35L3615.93,181.442L3616.01,181.534L3616.1,181.624L3616.19,181.713L3616.28,181.8L3616.38,181.886L3616.47,181.97L3616.56,182.052L3616.66,182.133L3616.76,182.212L3616.86,182.29L3616.96,182.366L3617.06,182.44L3617.16,182.512L3617.27,182.583L3617.37,182.652L3617.48,182.719L3617.59,182.784L3617.7,182.847L3617.81,182.911L3617.86,182.938L3617.92,182.968L3617.97,182.997L3618.03,183.025L3618.09,183.053L3618.14,183.08L3618.2,183.107L3618.26,183.134L3618.32,183.16L3618.38,183.185L3618.44,183.21L3618.5,183.235L3618.56,183.258L3618.62,183.282L3618.68,183.305L3618.74,183.327L3618.8,183.349L3618.86,183.37L3618.92,183.391L3618.98,183.411L3619.05,183.43L3619.11,183.449L3619.17,183.468L3619.24,183.486L3619.3,183.503L3619.36,183.52L3619.43,183.536L3619.49,183.552L3619.56,183.567L3619.62,183.581L3619.69,183.595L3619.76,183.609L3619.82,183.621L3619.89,183.633L3619.96,183.645L3620.03,183.656L3620.09,183.666L3620.16,183.676L3620.23,183.685L3620.3,183.693L3620.37,183.701L3620.44,183.708L3620.51,183.715L3620.59,183.72L3620.66,183.726L3620.73,183.73L3620.8,183.734L3620.87,183.737L3620.95,183.739L3621.02,183.741L3621.1,183.742L3621.18,183.743L3621.38,183.753L3621.57,183.783L3621.76,183.831L3621.94,183.898L3622.12,183.982L3622.28,184.084L3622.44,184.201L3622.59,184.333L3622.72,184.479L3622.83,184.636L3622.93,184.804L3623.01,184.982L3623.08,185.166L3623.13,185.356L3623.16,185.55L3623.16,185.745L3623.15,185.94L3623.12,186.134L3623.08,186.323L3623.01,186.507L3622.92,186.683L3622.82,186.851L3622.7,187.007L3622.57,187.151L3622.43,187.282L3622.27,187.398L3622.1,187.498L3621.92,187.58L3621.74,187.645L3621.55,187.692L3621.36,187.72L3621.16,187.728L3621.06,187.728L3620.95,187.726L3620.83,187.724L3620.72,187.72L3620.61,187.715L3620.5,187.709L3620.39,187.702L3620.28,187.695L3620.17,187.686L3620.06,187.676L3619.95,187.665L3619.84,187.653L3619.74,187.64L3619.63,187.626L3619.52,187.611L3619.41,187.595L3619.31,187.578L3619.2,187.56L3619.1,187.541L3618.99,187.521L3618.89,187.5L3618.78,187.478L3618.68,187.455L3618.58,187.431L3618.47,187.406L3618.37,187.381L3618.27,187.354L3618.17,187.327L3618.07,187.299L3617.97,187.269L3617.87,187.239L3617.77,187.208L3617.67,187.176L3617.58,187.143L3617.48,187.11L3617.38,187.075L3617.28,187.04L3617.19,187.003L3617.09,186.966L3617,186.928L3616.9,186.89L3616.81,186.85L3616.72,186.81L3616.62,186.768L3616.53,186.727L3616.44,186.684L3616.35,186.64L3616.26,186.597L3616.17,186.552L3616.08,186.506L3615.99,186.46L3615.9,186.41L3615.73,186.316L3615.56,186.216L3615.39,186.114L3615.22,186.01L3615.06,185.902L3614.9,185.792L3614.74,185.68L3614.58,185.564L3614.42,185.447L3614.27,185.328L3614.12,185.206L3613.97,185.082L3613.83,184.956L3613.69,184.827L3613.55,184.697L3613.41,184.565L3613.27,184.431L3613.14,184.295L3613.01,184.157L3612.88,184.017L3612.76,183.876L3612.63,183.733L3612.51,183.589L3612.4,183.443L3612.28,183.295L3612.17,183.146L3612.06,182.997L3611.95,182.845L3611.85,182.692L3611.74,182.538L3611.64,182.382L3611.55,182.226L3611.45,182.069L3611.36,181.91L3611.27,181.75L3611.18,181.589L3611.09,181.428L3611.01,181.257L3610.97,181.182L3610.93,181.095L3610.9,181.009L3610.87,180.929L3610.84,180.849L3610.82,180.77L3610.8,180.691L3610.77,180.605L3610.74,180.47L3610.72,180.326L3610.7,180.187L3610.69,180.054L3610.68,179.922L3610.67,179.796L3610.67,179.674L3610.67,179.553L3610.68,179.433L3610.68,179.317L3610.69,179.203L3610.7,179.09L3610.71,178.978L3610.72,178.867L3610.73,178.759L3610.74,178.649L3610.77,178.44L3610.8,178.231L3610.83,178.028L3610.87,177.828L3610.93,177.445L3610.96,177.264L3610.99,177.091L3611.01,176.927L3611.03,176.768L3611.04,176.699L3611.05,176.632L3611.05,176.567L3611.06,176.504L3611.06,176.448L3611.06,176.397L3611.06,176.366L3611.06,176.364L3610.98,176.23L3610.91,176.098L3610.85,175.967L3610.8,175.845L3610.76,175.725L3610.72,175.61L3610.7,175.498L3610.67,175.391L3610.65,175.29L3610.64,175.19L3610.63,175.099L3610.62,175.009L3610.61,174.92L3610.61,174.836L3610.6,174.748L3610.6,174.605L3610.6,174.46L3610.61,174.324L3610.61,174.196L3610.62,174.073L3610.64,173.859L3610.65,173.665L3610.66,173.611L3610.64,173.587L3610.59,173.514L3610.54,173.442L3610.5,173.368L3610.45,173.297L3610.41,173.225L3610.37,173.152L3610.33,173.08L3610.3,173.007L3610.26,172.934L3610.23,172.861L3610.19,172.782L3610.13,172.644L3610.08,172.499L3610.03,172.353L3609.98,172.207L3609.93,172.06L3609.89,171.914L3609.85,171.768L3609.82,171.62L3609.78,171.472L3609.75,171.326L3609.72,171.178L3609.69,171.028L3609.67,170.879L3609.65,170.728L3609.63,170.579L3609.61,170.429L3609.59,170.278L3609.57,170.127L3609.56,169.974L3609.54,169.823L3609.53,169.672L3609.52,169.519L3609.51,169.367L3609.5,169.214L3609.49,169.062L3609.48,168.911L3609.47,168.755L3609.46,168.455L3609.45,168.154L3609.45,167.855L3609.45,167.559L3609.44,167.267L3609.44,166.98L3609.45,166.698L3609.45,166.423L3609.45,165.897L3609.46,165.404L3609.46,165.177L3609.46,164.957L3609.46,164.505L3609.46,164.049L3609.46,163.594L3609.47,163.138L3609.47,162.682L3609.48,162.226L3609.48,161.769L3609.49,161.312L3609.5,160.4L3609.52,159.487L3609.54,158.574L3609.57,157.661L3609.59,156.748L3609.62,155.835L3609.64,154.923L3609.67,154.012L3609.7,153.102L3609.73,152.192L3609.8,150.377L3609.86,148.566L3609.89,147.663L3609.92,146.762L3609.95,145.863L3609.98,144.966L3610,144.072L3610.03,143.179L3610.05,142.289L3610.07,141.402L3610.09,140.518L3610.1,139.635L3610.11,139.196L3610.11,138.758L3610.12,138.32L3610.12,137.883L3610.13,137.446L3610.13,137.011L3610.13,136.576L3610.13,136.14L3610.14,135.945L3610.17,135.752L3610.22,135.562L3610.28,135.378L3610.37,135.201L3610.47,135.034L3610.58,134.877L3610.72,134.732L3610.86,134.601L3611.02,134.484L3611.19,134.384L3611.36,134.301L3611.55,134.235L3611.74,134.188L3611.93,134.159L3612.13,134.15L3612.32,134.159Z"/><path d="M3577.62,183.744L3577.96,183.747L3578.3,183.751L3578.64,183.757L3578.97,183.765L3579.31,183.774L3579.64,183.785L3579.97,183.796L3580.29,183.809L3580.62,183.822L3581.26,183.851L3581.91,183.881L3582.55,183.913L3583.18,183.944L3583.82,183.974L3584.45,184.002L3584.77,184.015L3585.09,184.027L3585.4,184.038L3585.72,184.048L3586.04,184.056L3586.36,184.064L3586.69,184.07L3587.01,184.074L3587.34,184.077L3587.66,184.078L3587.93,184.077L3588.22,184.074L3588.53,184.072L3588.85,184.072L3589.02,184.074L3589.19,184.076L3589.37,184.079L3589.54,184.085L3589.72,184.092L3589.9,184.101L3590.08,184.112L3590.26,184.127L3590.45,184.144L3590.63,184.164L3590.73,184.177L3590.82,184.19L3590.91,184.204L3591.01,184.219L3591.1,184.236L3591.2,184.254L3591.3,184.274L3591.39,184.295L3591.49,184.317L3591.59,184.342L3591.69,184.369L3591.78,184.397L3591.88,184.428L3591.99,184.461L3592.09,184.497L3592.19,184.536L3592.29,184.578L3592.39,184.624L3592.49,184.673L3592.6,184.726L3592.7,184.783L3592.81,184.845L3592.91,184.912L3593.02,184.985L3593.08,185.029L3593.13,185.035L3593.21,185.043L3593.29,185.05L3593.38,185.057L3593.47,185.063L3593.58,185.067L3593.69,185.071L3593.8,185.074L3593.92,185.076L3594.05,185.077L3594.17,185.076L3594.31,185.075L3594.44,185.073L3594.58,185.07L3594.72,185.067L3594.86,185.062L3595.01,185.057L3595.31,185.044L3595.61,185.028L3595.91,185.011L3596.22,184.991L3596.52,184.97L3596.83,184.948L3597.13,184.926L3597.42,184.903L3597.98,184.858L3598.49,184.817L3598.73,184.799L3598.95,184.783L3599.16,184.769L3599.36,184.758L3599.54,184.751L3599.63,184.749L3599.71,184.748L3600.06,184.747L3600.39,184.746L3600.73,184.744L3601.07,184.74L3601.41,184.736L3601.74,184.732L3602.09,184.726L3602.43,184.72L3603.12,184.704L3603.81,184.687L3604.5,184.667L3605.2,184.644L3605.9,184.62L3606.6,184.594L3607.3,184.566L3608,184.538L3608.7,184.508L3609.41,184.477L3610.81,184.415L3612.2,184.352L3613.59,184.292L3614.28,184.263L3614.96,184.235L3615.64,184.208L3616.32,184.184L3616.99,184.161L3617.66,184.14L3618.32,184.122L3618.97,184.107L3619.61,184.095L3619.93,184.09L3620.25,184.085L3620.57,184.082L3620.88,184.08L3621.2,184.078L3621.5,184.078L3621.69,184.086L3621.87,184.111L3622.05,184.153L3622.22,184.211L3622.39,184.285L3622.55,184.375L3622.7,184.478L3622.85,184.596L3622.98,184.726L3623.09,184.867L3623.2,185.019L3623.29,185.179L3623.36,185.348L3623.42,185.522L3623.46,185.701L3623.49,185.884L3623.5,186.067L3623.49,186.251L3623.47,186.434L3623.42,186.613L3623.37,186.788L3623.29,186.956L3623.2,187.117L3623.1,187.269L3622.98,187.411L3622.85,187.541L3622.71,187.659L3622.56,187.763L3622.4,187.853L3622.23,187.928L3622.05,187.987L3621.88,188.029L3621.69,188.055L3621.51,188.064L3621.21,188.064L3620.91,188.065L3620.6,188.068L3620.3,188.071L3619.99,188.075L3619.68,188.08L3619.05,188.092L3618.42,188.107L3617.77,188.125L3617.12,188.145L3616.46,188.167L3615.8,188.191L3615.12,188.217L3614.45,188.245L3613.76,188.274L3612.38,188.334L3610.99,188.397L3609.58,188.459L3608.87,188.49L3608.17,188.52L3607.46,188.549L3606.75,188.577L3606.04,188.603L3605.33,188.628L3604.62,188.651L3603.91,188.671L3603.21,188.689L3602.51,188.705L3602.16,188.711L3601.81,188.717L3601.46,188.722L3601.11,188.726L3600.76,188.729L3600.41,188.732L3600.07,188.733L3599.74,188.734L3599.7,188.734L3599.67,188.735L3599.55,188.74L3599.41,188.748L3599.23,188.759L3599.03,188.774L3598.8,188.791L3598.3,188.831L3597.73,188.877L3597.43,188.9L3597.12,188.923L3596.8,188.946L3596.48,188.968L3596.15,188.989L3595.82,189.008L3595.49,189.025L3595.17,189.039L3595,189.045L3594.84,189.051L3594.67,189.055L3594.51,189.058L3594.35,189.061L3594.19,189.062L3594.03,189.062L3593.88,189.061L3593.72,189.059L3593.57,189.055L3593.42,189.05L3593.27,189.043L3593.12,189.034L3592.97,189.024L3592.82,189.011L3592.68,188.996L3592.53,188.977L3592.39,188.956L3592.24,188.931L3592.1,188.902L3592.01,188.883L3591.94,188.864L3591.86,188.843L3591.78,188.82L3591.7,188.795L3591.61,188.766L3591.53,188.735L3591.44,188.699L3591.35,188.658L3591.25,188.612L3591.15,188.56L3591.05,188.499L3590.94,188.429L3590.84,188.35L3590.72,188.258L3590.7,188.234L3590.68,188.229L3590.66,188.222L3590.64,188.215L3590.61,188.207L3590.58,188.199L3590.55,188.191L3590.51,188.182L3590.48,188.174L3590.44,188.166L3590.39,188.158L3590.35,188.15L3590.3,188.142L3590.25,188.135L3590.2,188.128L3590.15,188.122L3590.04,188.109L3589.92,188.098L3589.8,188.088L3589.67,188.08L3589.54,188.073L3589.4,188.068L3589.26,188.064L3589.13,188.061L3588.98,188.059L3588.84,188.058L3588.54,188.058L3588.25,188.06L3587.95,188.062L3587.66,188.064L3587.31,188.063L3586.97,188.06L3586.62,188.055L3586.28,188.049L3585.94,188.041L3585.61,188.032L3585.27,188.021L3584.94,188.01L3584.61,187.997L3584.28,187.984L3583.63,187.955L3582.99,187.925L3582.35,187.894L3581.72,187.862L3581.08,187.832L3580.45,187.804L3580.14,187.792L3579.82,187.779L3579.5,187.768L3579.19,187.759L3578.87,187.75L3578.55,187.742L3578.24,187.736L3577.92,187.732L3577.6,187.729L3577.27,187.728L3577.08,187.719L3576.9,187.693L3576.72,187.651L3576.55,187.592L3576.38,187.517L3576.22,187.427L3576.07,187.322L3575.93,187.204L3575.8,187.074L3575.68,186.932L3575.58,186.78L3575.49,186.619L3575.41,186.45L3575.36,186.275L3575.31,186.096L3575.29,185.914L3575.28,185.73L3575.29,185.546L3575.32,185.364L3575.36,185.185L3575.42,185.01L3575.49,184.842L3575.58,184.682L3575.69,184.53L3575.81,184.389L3575.93,184.259L3576.08,184.142L3576.23,184.038L3576.39,183.949L3576.56,183.875L3576.73,183.817L3576.91,183.776L3577.1,183.751L3577.28,183.743L3577.62,183.744Z"/><path d="M3594.46,139.848L3594.61,139.861L3594.76,139.886L3594.91,139.922L3595.05,139.97L3595.2,140.028L3595.33,140.097L3595.46,140.176L3595.59,140.265L3595.7,140.363L3595.81,140.47L3595.91,140.585L3596,140.707L3596.09,140.836L3596.16,140.971L3596.22,141.111L3596.27,141.255L3596.31,141.402L3596.34,141.552L3596.35,141.704L3596.36,141.857L3596.35,142.009L3596.33,142.161L3596.3,142.31L3596.26,142.457L3596.2,142.6L3596.14,142.739L3596.07,142.873L3595.98,143L3595.89,143.121L3595.79,143.234L3595.68,143.339L3595.56,143.435L3595.43,143.521L3595.43,143.525L3595.41,143.572L3595.4,143.655L3595.39,143.744L3595.37,143.839L3595.36,143.941L3595.35,144.047L3595.33,144.157L3595.32,144.271L3595.31,144.389L3595.31,144.51L3595.3,144.635L3595.29,144.761L3595.28,144.889L3595.28,145.02L3595.28,145.152L3595.27,145.285L3595.27,145.419L3595.27,145.553L3595.27,145.686L3595.27,145.958L3595.27,146.225L3595.28,146.489L3595.29,146.746L3595.29,146.995L3595.3,147.234L3595.31,147.461L3595.33,147.877L3595.34,148.061L3595.35,148.231L3595.35,148.389L3595.35,148.525L3595.35,149.072L3595.36,149.602L3595.36,150.131L3595.37,150.661L3595.37,151.19L3595.38,151.719L3595.39,152.248L3595.4,152.777L3595.41,153.305L3595.43,153.833L3595.46,154.893L3595.49,155.952L3595.52,157.013L3595.55,158.077L3595.58,159.143L3595.61,160.212L3595.62,160.749L3595.63,161.286L3595.64,161.825L3595.66,162.365L3595.66,162.905L3595.67,163.448L3595.68,163.991L3595.68,164.536L3595.68,165.082L3595.69,165.647L3595.68,165.783L3595.68,165.933L3595.67,166.088L3595.66,166.252L3595.64,166.426L3595.63,166.612L3595.6,167.01L3595.56,167.397L3595.64,167.418L3595.78,167.47L3595.92,167.532L3596.06,167.606L3596.18,167.689L3596.31,167.782L3596.42,167.884L3596.52,167.994L3596.62,168.112L3596.71,168.237L3596.79,168.368L3596.85,168.505L3596.91,168.647L3596.96,168.793L3596.99,168.941L3597.01,169.092L3597.03,169.245L3597.03,169.397L3597.01,169.55L3597.01,169.556L3596.99,169.682L3596.97,169.807L3596.95,169.88L3596.9,170.015L3596.87,170.115L3596.83,170.199L3596.8,170.286L3596.76,170.378L3596.68,170.568L3596.58,170.784L3596.47,171.015L3596.41,171.139L3596.35,171.263L3596.29,171.388L3596.22,171.516L3596.16,171.643L3596.09,171.77L3596.02,171.898L3595.95,172.022L3595.88,172.146L3595.81,172.271L3595.73,172.396L3595.65,172.513L3595.61,172.582L3595.56,172.65L3595.51,172.715L3595.45,172.784L3595.39,172.859L3595.32,172.938L3595.24,173.025L3595.14,173.121L3595.01,173.229L3594.92,173.289L3594.84,173.346L3594.75,173.399L3594.73,173.408L3594.61,173.473L3594.47,173.528L3594.46,173.534L3594.32,173.581L3594.18,173.618L3594.18,173.619L3594.08,173.639L3593.97,173.654L3593.97,173.655L3593.84,173.666L3593.72,173.669L3593.71,173.669L3593.58,173.664L3593.44,173.649L3593.44,173.648L3593.29,173.622L3593.15,173.585L3593.14,173.583L3593.04,173.551L3592.95,173.514L3592.85,173.472L3592.85,173.469L3592.73,173.408L3592.62,173.339L3592.61,173.335L3592.49,173.252L3592.38,173.16L3592.37,173.155L3592.31,173.092L3592.24,173.027L3592.18,172.964L3592.09,172.854L3592.02,172.752L3591.95,172.654L3591.89,172.554L3591.84,172.458L3591.8,172.371L3591.76,172.287L3591.73,172.206L3591.7,172.116L3591.65,171.977L3591.61,171.834L3591.58,171.698L3591.55,171.567L3591.53,171.437L3591.51,171.311L3591.49,171.188L3591.48,171.063L3591.47,170.939L3591.46,170.816L3591.45,170.692L3591.45,170.569L3591.44,170.444L3591.44,170.318L3591.44,170.192L3591.44,170.064L3591.44,169.936L3591.44,169.807L3591.44,169.675L3591.45,169.418L3591.45,169.155L3591.47,168.891L3591.48,168.629L3591.5,168.367L3591.51,168.108L3591.53,167.853L3591.55,167.601L3591.59,167.123L3591.62,166.682L3591.66,166.288L3591.67,166.117L3591.68,165.964L3591.69,165.833L3591.7,165.728L3591.7,165.658L3591.7,165.613L3591.7,165.096L3591.7,164.563L3591.69,164.03L3591.69,163.498L3591.68,162.967L3591.67,162.435L3591.66,161.905L3591.65,161.374L3591.64,160.844L3591.62,160.314L3591.6,159.253L3591.57,158.192L3591.53,157.13L3591.5,156.067L3591.47,155.002L3591.44,153.936L3591.43,153.4L3591.42,152.864L3591.41,152.328L3591.4,151.79L3591.39,151.252L3591.38,150.712L3591.37,150.171L3591.37,149.629L3591.37,149.085L3591.37,148.556L3591.36,148.475L3591.36,148.365L3591.36,148.22L3591.35,148.046L3591.33,147.629L3591.32,147.391L3591.31,147.136L3591.3,146.866L3591.29,146.584L3591.29,146.292L3591.28,145.99L3591.28,145.684L3591.28,145.525L3591.28,145.368L3591.29,145.209L3591.29,145.05L3591.3,144.89L3591.3,144.73L3591.31,144.568L3591.32,144.407L3591.33,144.246L3591.34,144.085L3591.35,143.924L3591.37,143.763L3591.38,143.603L3591.4,143.442L3591.42,143.284L3591.45,143.125L3591.47,142.965L3591.5,142.806L3591.54,142.647L3591.57,142.488L3591.61,142.336L3591.64,142.248L3591.66,142.169L3591.68,142.09L3591.71,142.008L3591.74,141.926L3591.77,141.843L3591.8,141.763L3591.83,141.68L3591.87,141.596L3591.91,141.512L3591.95,141.424L3592,141.339L3592.05,141.253L3592.1,141.167L3592.15,141.08L3592.22,140.99L3592.28,140.899L3592.35,140.811L3592.43,140.721L3592.52,140.631L3592.61,140.542L3592.7,140.455L3592.81,140.371L3592.92,140.289L3593.04,140.212L3593.17,140.14L3593.31,140.074L3593.45,140.014L3593.6,139.963L3593.75,139.92L3593.9,139.887L3594.06,139.864L3594.21,139.85L3594.31,139.847L3594.46,139.848ZM3594.42,143.831L3594.45,143.83L3594.49,143.827L3594.42,143.831Z"/><path d="M3604.51,141.121L3604.66,141.134L3604.81,141.158L3604.81,141.158L3604.96,141.193L3605.1,141.238L3605.24,141.294L3605.37,141.359L3605.5,141.435L3605.62,141.52L3605.74,141.613L3605.84,141.715L3605.94,141.825L3606.03,141.942L3606.12,142.065L3606.12,142.069L3606.19,142.186L3606.25,142.307L3606.3,142.433L3606.3,142.44L3606.34,142.566L3606.37,142.694L3606.39,142.761L3606.41,142.867L3606.42,142.956L3606.43,143.043L3606.45,143.222L3606.48,143.431L3606.53,143.904L3606.59,144.42L3606.64,144.916L3606.67,145.134L3606.69,145.32L3606.71,145.467L3606.71,145.508L3606.72,145.546L3606.74,145.657L3606.76,145.782L3606.77,145.906L3606.79,146.031L3606.8,146.157L3606.82,146.281L3606.83,146.403L3606.84,146.528L3606.85,146.653L3606.86,146.775L3606.87,146.899L3606.88,147.023L3606.88,147.146L3606.89,147.271L3606.9,147.513L3606.9,147.758L3606.91,148.001L3606.91,148.243L3606.91,148.484L3606.9,148.723L3606.9,148.962L3606.89,149.199L3606.88,149.435L3606.87,149.669L3606.86,149.902L3606.84,150.359L3606.82,150.809L3606.79,151.251L3606.78,151.468L3606.77,151.682L3606.76,151.893L3606.76,152.101L3606.75,152.304L3606.75,152.506L3606.74,152.703L3606.74,152.903L3606.74,153.519L3606.74,154.14L3606.74,154.76L3606.73,155.38L3606.72,156L3606.71,156.618L3606.7,157.236L3606.69,157.853L3606.68,158.471L3606.67,159.088L3606.64,160.32L3606.61,161.551L3606.58,162.782L3606.55,164.014L3606.51,165.245L3606.49,166.478L3606.47,167.094L3606.46,167.711L3606.45,168.329L3606.44,168.946L3606.43,169.565L3606.42,170.184L3606.42,170.804L3606.41,171.424L3606.41,172.045L3606.41,172.67L3606.4,172.823L3606.39,172.974L3606.36,173.124L3606.32,173.271L3606.26,173.415L3606.2,173.554L3606.13,173.688L3606.04,173.816L3605.95,173.937L3605.85,174.051L3605.74,174.157L3605.62,174.254L3605.5,174.341L3605.37,174.419L3605.23,174.487L3605.09,174.544L3604.94,174.59L3604.79,174.624L3604.64,174.647L3604.49,174.659L3604.34,174.658L3604.18,174.647L3604.03,174.623L3603.89,174.588L3603.74,174.542L3603.6,174.484L3603.46,174.417L3603.33,174.338L3603.21,174.25L3603.09,174.153L3602.98,174.047L3602.88,173.933L3602.78,173.811L3602.7,173.683L3602.63,173.549L3602.57,173.409L3602.51,173.266L3602.47,173.118L3602.45,172.968L3602.43,172.817L3602.42,172.664L3602.42,172.033L3602.43,171.401L3602.43,170.77L3602.44,170.14L3602.45,169.512L3602.45,168.885L3602.46,168.26L3602.48,167.635L3602.49,167.012L3602.5,166.39L3602.53,165.151L3602.56,163.914L3602.59,162.681L3602.62,161.452L3602.65,160.225L3602.68,158.999L3602.69,158.388L3602.71,157.777L3602.72,157.167L3602.73,156.556L3602.74,155.946L3602.74,155.336L3602.75,154.726L3602.75,154.116L3602.76,153.507L3602.76,152.891L3602.76,152.666L3602.76,152.434L3602.77,152.204L3602.77,151.973L3602.78,151.744L3602.79,151.515L3602.8,151.287L3602.81,151.059L3602.84,150.608L3602.86,150.161L3602.88,149.717L3602.89,149.499L3602.9,149.283L3602.91,149.068L3602.91,148.855L3602.92,148.645L3602.92,148.436L3602.92,148.231L3602.92,148.027L3602.92,147.828L3602.91,147.631L3602.91,147.434L3602.9,147.341L3602.9,147.246L3602.89,147.153L3602.89,147.061L3602.88,146.967L3602.87,146.877L3602.86,146.788L3602.85,146.698L3602.84,146.61L3602.83,146.524L3602.82,146.439L3602.81,146.354L3602.8,146.27L3602.78,146.174L3602.77,146.098L3602.76,146.002L3602.73,145.815L3602.71,145.598L3602.68,145.36L3602.62,144.851L3602.57,144.337L3602.52,143.88L3602.5,143.724L3602.47,143.597L3602.44,143.447L3602.43,143.295L3602.42,143.142L3602.43,143.029L3602.43,142.935L3602.45,142.794L3602.48,142.655L3602.52,142.519L3602.52,142.514L3602.56,142.387L3602.62,142.264L3602.68,142.144L3602.75,142.029L3602.83,141.919L3602.91,141.814L3603,141.715L3603.1,141.623L3603.1,141.622L3603.22,141.524L3603.34,141.437L3603.47,141.359L3603.61,141.291L3603.75,141.234L3603.9,141.189L3604.05,141.154L3604.2,141.131L3604.36,141.12L3604.51,141.121ZM3606.38,143.52L3606.38,143.539L3606.38,143.513L3606.39,143.438L3606.38,143.52ZM3606.41,143.287L3606.41,143.25L3606.41,143.217L3606.41,143.287Z"/><path d="M3593.45,134.821L3593.54,134.824L3593.63,134.83L3593.72,134.838L3593.81,134.848L3593.9,134.861L3593.99,134.877L3594.08,134.896L3594.17,134.916L3594.26,134.939L3594.34,134.966L3594.43,134.994L3594.51,135.025L3594.6,135.058L3594.68,135.094L3594.76,135.133L3594.84,135.173L3594.92,135.214L3594.99,135.256L3595.07,135.303L3595.14,135.348L3595.21,135.402L3595.33,135.491L3595.44,135.587L3595.55,135.685L3595.64,135.782L3595.73,135.876L3595.8,135.965L3595.82,135.983L3595.84,135.982L3595.95,135.978L3596.07,135.972L3596.19,135.965L3596.31,135.957L3596.43,135.948L3596.68,135.928L3596.93,135.906L3597.17,135.884L3597.4,135.864L3597.61,135.846L3597.72,135.838L3597.82,135.832L3597.93,135.827L3598.03,135.825L3598.2,135.826L3598.36,135.828L3598.51,135.831L3598.67,135.835L3598.83,135.84L3599,135.847L3599.33,135.861L3599.68,135.878L3600.03,135.897L3600.76,135.938L3601.13,135.959L3601.5,135.98L3601.88,136L3602.26,136.018L3602.64,136.034L3602.82,136.04L3603.01,136.047L3603.2,136.052L3603.38,136.057L3603.57,136.06L3603.75,136.063L3603.93,136.064L3604.11,136.065L3604.28,136.064L3604.46,136.062L3604.63,136.059L3604.79,136.054L3604.96,136.048L3605.12,136.041L3605.28,136.032L3605.43,136.021L3605.58,136.01L3605.72,135.996L3605.86,135.982L3605.99,135.966L3606.12,135.948L3606.24,135.93L3606.37,135.909L3606.42,135.899L3606.47,135.889L3606.52,135.878L3606.57,135.867L3606.62,135.856L3606.66,135.845L3606.71,135.833L3606.75,135.822L3606.79,135.811L3606.82,135.799L3606.86,135.788L3606.89,135.777L3606.92,135.767L3606.95,135.756L3606.97,135.747L3606.99,135.737L3607.01,135.729L3607.03,135.721L3607.05,135.714L3607.06,135.707L3607.06,135.705L3607.13,135.645L3607.23,135.555L3607.34,135.478L3607.43,135.414L3607.53,135.355L3607.64,135.3L3607.73,135.255L3607.82,135.216L3607.91,135.182L3608.01,135.147L3608.16,135.105L3608.31,135.071L3608.45,135.046L3608.59,135.029L3608.71,135.018L3608.83,135.011L3608.95,135.007L3609.06,135.007L3609.16,135.009L3609.26,135.012L3609.37,135.018L3609.46,135.024L3609.56,135.032L3609.65,135.041L3609.75,135.05L3609.93,135.071L3610.1,135.093L3610.27,135.116L3610.44,135.139L3610.6,135.16L3610.75,135.181L3610.89,135.199L3610.95,135.205L3611.05,135.132L3611.17,135.061L3611.3,134.999L3611.43,134.946L3611.56,134.902L3611.69,134.867L3611.83,134.842L3611.97,134.826L3612.11,134.82L3612.24,134.824L3612.38,134.837L3612.52,134.86L3612.66,134.892L3612.79,134.934L3612.92,134.985L3613.04,135.045L3613.16,135.114L3613.28,135.19L3613.39,135.275L3613.49,135.367L3613.59,135.467L3613.68,135.572L3613.77,135.684L3613.84,135.802L3613.91,135.924L3613.96,136.05L3614.01,136.181L3614.05,136.314L3614.08,136.45L3614.1,136.588L3614.11,136.726L3614.12,136.865L3614.11,136.937L3614.1,137.06L3614.09,137.187L3614.06,137.326L3614.03,137.46L3613.99,137.59L3613.94,137.721L3613.88,137.851L3613.81,137.985L3613.73,138.109L3613.65,138.223L3613.56,138.336L3613.47,138.437L3613.38,138.528L3613.28,138.618L3613.18,138.694L3613.09,138.762L3612.99,138.826L3612.89,138.88L3612.8,138.929L3612.7,138.972L3612.62,139.009L3612.53,139.042L3612.43,139.076L3612.29,139.118L3612.14,139.153L3612,139.179L3611.86,139.197L3611.74,139.21L3611.62,139.218L3611.5,139.223L3611.39,139.225L3611.28,139.224L3611.17,139.221L3611.07,139.217L3610.97,139.211L3610.87,139.203L3610.77,139.195L3610.59,139.176L3610.4,139.155L3610.23,139.133L3610.06,139.11L3609.89,139.087L3609.74,139.065L3609.59,139.045L3609.45,139.028L3609.32,139.013L3609.29,139.01L3609.22,139.057L3609.13,139.114L3609.04,139.168L3608.94,139.22L3608.85,139.268L3608.76,139.313L3608.67,139.357L3608.57,139.398L3608.48,139.437L3608.39,139.474L3608.29,139.509L3608.2,139.542L3608.11,139.573L3608.01,139.603L3607.92,139.632L3607.83,139.659L3607.74,139.684L3607.64,139.709L3607.55,139.732L3607.45,139.754L3607.36,139.774L3607.27,139.794L3607.17,139.813L3607.07,139.832L3606.89,139.864L3606.7,139.893L3606.5,139.919L3606.31,139.943L3606.11,139.963L3605.92,139.981L3605.72,139.997L3605.52,140.01L3605.32,140.021L3605.12,140.03L3604.92,140.038L3604.72,140.043L3604.52,140.047L3604.31,140.05L3604.11,140.05L3603.91,140.05L3603.7,140.048L3603.5,140.045L3603.3,140.041L3603.09,140.036L3602.89,140.031L3602.68,140.024L3602.48,140.016L3602.08,139.999L3601.68,139.981L3601.29,139.96L3600.91,139.939L3600.53,139.918L3599.81,139.877L3599.47,139.859L3599.15,139.843L3598.84,139.829L3598.7,139.824L3598.55,139.819L3598.42,139.816L3598.29,139.813L3598.17,139.811L3598.06,139.811L3598.06,139.811L3598.03,139.812L3597.99,139.815L3597.92,139.82L3597.75,139.835L3597.53,139.854L3597.29,139.876L3597.02,139.9L3596.73,139.922L3596.58,139.933L3596.43,139.943L3596.28,139.952L3596.13,139.96L3595.97,139.966L3595.82,139.97L3595.66,139.972L3595.5,139.972L3595.34,139.968L3595.19,139.961L3595.1,139.955L3595.02,139.948L3594.93,139.94L3594.84,139.93L3594.75,139.917L3594.66,139.902L3594.56,139.883L3594.46,139.86L3594.35,139.831L3594.23,139.795L3594.1,139.75L3593.96,139.692L3593.81,139.616L3593.65,139.52L3593.56,139.454L3593.47,139.392L3593.39,139.325L3593.31,139.253L3593.19,139.128L3593.11,139.033L3593.04,138.947L3592.98,138.868L3592.94,138.811L3592.85,138.813L3592.68,138.818L3592.49,138.824L3592.28,138.832L3592.07,138.841L3591.84,138.852L3591.61,138.864L3591.37,138.878L3591.13,138.894L3590.89,138.912L3590.64,138.932L3590.4,138.954L3590.16,138.978L3590.04,138.991L3589.93,139.004L3589.81,139.018L3589.7,139.032L3589.59,139.047L3589.49,139.062L3589.38,139.077L3589.28,139.093L3589.18,139.109L3589.09,139.125L3589.01,139.142L3588.92,139.159L3588.85,139.175L3588.78,139.192L3588.77,139.194L3588.69,139.268L3588.59,139.36L3588.48,139.444L3588.36,139.521L3588.24,139.589L3588.12,139.648L3587.99,139.699L3587.85,139.74L3587.72,139.772L3587.58,139.795L3587.44,139.808L3587.3,139.811L3587.16,139.804L3587.03,139.788L3586.89,139.762L3586.75,139.727L3586.62,139.682L3586.49,139.629L3586.37,139.566L3586.25,139.495L3586.14,139.416L3586.03,139.329L3585.93,139.235L3585.83,139.134L3585.74,139.026L3585.66,138.913L3585.59,138.794L3585.53,138.67L3585.47,138.542L3585.42,138.411L3585.39,138.277L3585.36,138.141L3585.34,138.003L3585.33,137.864L3585.34,137.725L3585.34,137.618L3585.36,137.513L3585.37,137.419L3585.39,137.327L3585.41,137.224L3585.45,137.124L3585.47,137.039L3585.51,136.955L3585.55,136.87L3585.62,136.72L3585.71,136.577L3585.8,136.449L3585.89,136.34L3585.98,136.242L3586.08,136.152L3586.16,136.076L3586.25,136.005L3586.33,135.942L3586.41,135.888L3586.49,135.836L3586.57,135.789L3586.65,135.746L3586.72,135.709L3586.8,135.669L3586.93,135.609L3587.07,135.553L3587.2,135.504L3587.33,135.459L3587.46,135.419L3587.59,135.381L3587.72,135.347L3587.85,135.315L3587.98,135.285L3588.11,135.257L3588.24,135.23L3588.37,135.205L3588.51,135.181L3588.64,135.159L3588.78,135.138L3588.91,135.117L3589.05,135.098L3589.19,135.079L3589.33,135.062L3589.47,135.045L3589.61,135.029L3589.75,135.014L3590.02,134.986L3590.3,134.961L3590.58,134.939L3590.85,134.918L3591.12,134.9L3591.39,134.885L3591.64,134.871L3591.89,134.859L3592.12,134.849L3592.35,134.841L3592.56,134.834L3592.75,134.829L3592.93,134.825L3593.09,134.822L3593.23,134.82L3593.37,134.82L3593.45,134.821ZM3589.29,138.14L3589.29,138.138L3589.29,138.13L3589.29,138.14ZM3589.31,138.023L3589.31,137.978L3589.32,137.911L3589.31,138.023ZM3610.13,136.735L3610.13,136.76L3610.14,136.672L3610.13,136.735Z"/><path d="M3587.71,135.493L3587.74,135.494L3587.77,135.495L3587.8,135.497L3587.83,135.499L3587.87,135.502L3587.9,135.505L3587.93,135.509L3587.96,135.514L3587.99,135.518L3588.02,135.524L3588.05,135.53L3588.08,135.536L3588.11,135.543L3588.14,135.55L3588.18,135.558L3588.21,135.566L3588.24,135.575L3588.27,135.584L3588.3,135.594L3588.33,135.604L3588.36,135.614L3588.39,135.626L3588.42,135.637L3588.45,135.649L3588.47,135.662L3588.5,135.675L3588.53,135.688L3588.56,135.702L3588.59,135.716L3588.62,135.731L3588.64,135.746L3588.67,135.762L3588.7,135.778L3588.72,135.795L3588.75,135.812L3588.78,135.829L3588.81,135.847L3588.83,135.865L3588.86,135.884L3588.88,135.903L3588.91,135.922L3588.93,135.942L3588.95,135.962L3588.98,135.983L3589,136.004L3589.03,136.025L3589.05,136.047L3589.07,136.069L3589.09,136.091L3589.12,136.114L3589.14,136.137L3589.16,136.16L3589.18,136.184L3589.2,136.208L3589.22,136.233L3589.24,136.258L3589.26,136.283L3589.28,136.308L3589.3,136.334L3589.32,136.36L3589.33,136.386L3589.35,136.412L3589.37,136.439L3589.38,136.466L3589.4,136.493L3589.41,136.521L3589.43,136.549L3589.44,136.577L3589.46,136.605L3589.47,136.634L3589.49,136.662L3589.5,136.691L3589.51,136.72L3589.52,136.75L3589.53,136.779L3589.55,136.809L3589.56,136.838L3589.57,136.868L3589.58,136.899L3589.58,136.929L3589.59,136.959L3589.6,136.99L3589.61,137.021L3589.62,137.051L3589.62,137.082L3589.63,137.113L3589.63,137.144L3589.64,137.176L3589.64,137.207L3589.65,137.238L3589.65,137.27L3589.66,137.301L3589.66,137.333L3589.66,137.364L3589.66,137.396L3589.66,137.427L3589.66,137.459L3589.66,137.491L3589.66,137.522L3589.66,137.554L3589.66,137.585L3589.66,137.617L3589.66,137.648L3589.65,137.68L3589.65,137.711L3589.65,137.743L3589.64,137.774L3589.64,137.805L3589.63,137.837L3589.63,137.868L3589.62,137.899L3589.61,137.93L3589.61,137.96L3589.6,137.991L3589.59,138.021L3589.58,138.052L3589.57,138.082L3589.56,138.112L3589.55,138.142L3589.54,138.172L3589.53,138.201L3589.52,138.231L3589.51,138.26L3589.49,138.289L3589.48,138.318L3589.47,138.347L3589.45,138.375L3589.44,138.403L3589.42,138.431L3589.41,138.459L3589.39,138.486L3589.38,138.514L3589.36,138.541L3589.34,138.567L3589.33,138.594L3589.31,138.62L3589.29,138.646L3589.27,138.671L3589.25,138.696L3589.23,138.721L3589.21,138.746L3589.19,138.77L3589.17,138.794L3589.15,138.818L3589.13,138.841L3589.11,138.864L3589.09,138.887L3589.07,138.909L3589.04,138.931L3589.02,138.953L3588.99,138.974L3588.97,138.995L3588.95,139.015L3588.92,139.035L3588.9,139.055L3588.87,139.074L3588.85,139.093L3588.82,139.112L3588.8,139.13L3588.77,139.148L3588.74,139.165L3588.72,139.182L3588.69,139.198L3588.66,139.214L3588.64,139.229L3588.61,139.245L3588.58,139.259L3588.55,139.273L3588.52,139.287L3588.49,139.3L3588.47,139.313L3588.43,139.326L3588.41,139.338L3588.38,139.349L3588.35,139.36L3588.32,139.37L3588.29,139.38L3588.26,139.39L3588.23,139.399L3588.2,139.408L3588.17,139.416L3588.14,139.423L3588.1,139.431L3588.07,139.437L3588.04,139.443L3588.01,139.449L3587.98,139.454L3587.95,139.459L3587.92,139.463L3587.89,139.467L3587.86,139.47L3587.82,139.472L3587.79,139.475L3587.76,139.476L3587.73,139.478L3587.7,139.478L3587.64,139.479L3587.61,139.48L3587.57,139.483L3587.52,139.486L3587.46,139.491L3587.4,139.497L3587.24,139.513L3587.08,139.53L3586.98,139.539L3586.88,139.548L3586.77,139.556L3586.66,139.562L3586.54,139.567L3586.44,139.568L3586.41,139.568L3586.37,139.568L3586.34,139.567L3586.31,139.566L3586.28,139.564L3586.25,139.562L3586.22,139.559L3586.18,139.555L3586.15,139.552L3586.12,139.547L3586.09,139.542L3586.06,139.537L3586.03,139.531L3586,139.525L3585.97,139.518L3585.94,139.511L3585.91,139.503L3585.88,139.495L3585.84,139.486L3585.81,139.477L3585.78,139.467L3585.75,139.457L3585.72,139.446L3585.7,139.435L3585.66,139.424L3585.64,139.412L3585.61,139.399L3585.58,139.386L3585.55,139.373L3585.52,139.359L3585.49,139.344L3585.47,139.33L3585.44,139.314L3585.41,139.299L3585.38,139.283L3585.36,139.266L3585.33,139.249L3585.3,139.232L3585.28,139.214L3585.25,139.196L3585.22,139.177L3585.2,139.158L3585.18,139.139L3585.15,139.119L3585.13,139.099L3585.1,139.078L3585.08,139.057L3585.06,139.036L3585.03,139.014L3585.01,138.992L3584.99,138.97L3584.97,138.947L3584.94,138.924L3584.92,138.9L3584.9,138.876L3584.88,138.852L3584.86,138.828L3584.84,138.803L3584.82,138.778L3584.8,138.753L3584.78,138.727L3584.77,138.701L3584.75,138.675L3584.73,138.648L3584.72,138.622L3584.7,138.595L3584.68,138.567L3584.67,138.54L3584.65,138.512L3584.64,138.484L3584.62,138.456L3584.61,138.427L3584.6,138.398L3584.58,138.37L3584.57,138.34L3584.56,138.311L3584.55,138.282L3584.54,138.252L3584.53,138.222L3584.52,138.192L3584.51,138.162L3584.5,138.132L3584.49,138.101L3584.48,138.071L3584.47,138.04L3584.47,138.009L3584.46,137.978L3584.45,137.947L3584.45,137.916L3584.44,137.885L3584.44,137.854L3584.43,137.822L3584.43,137.791L3584.43,137.76L3584.42,137.728L3584.42,137.697L3584.42,137.665L3584.42,137.633L3584.42,137.602L3584.42,137.57L3584.42,137.538L3584.42,137.507L3584.42,137.475L3584.42,137.444L3584.43,137.412L3584.43,137.381L3584.43,137.349L3584.43,137.318L3584.44,137.287L3584.44,137.255L3584.45,137.224L3584.45,137.193L3584.46,137.162L3584.47,137.131L3584.47,137.1L3584.48,137.07L3584.49,137.039L3584.5,137.009L3584.51,136.979L3584.52,136.949L3584.53,136.919L3584.54,136.889L3584.55,136.859L3584.56,136.83L3584.58,136.801L3584.59,136.772L3584.6,136.743L3584.61,136.714L3584.63,136.686L3584.64,136.657L3584.66,136.63L3584.67,136.602L3584.69,136.574L3584.7,136.547L3584.72,136.52L3584.74,136.494L3584.76,136.467L3584.77,136.441L3584.79,136.415L3584.81,136.39L3584.83,136.364L3584.85,136.339L3584.87,136.315L3584.89,136.29L3584.91,136.266L3584.93,136.243L3584.95,136.219L3584.97,136.196L3584.99,136.174L3585.02,136.151L3585.04,136.129L3585.06,136.108L3585.09,136.087L3585.11,136.066L3585.13,136.045L3585.16,136.025L3585.18,136.006L3585.21,135.986L3585.23,135.967L3585.26,135.949L3585.28,135.931L3585.31,135.913L3585.34,135.896L3585.37,135.879L3585.39,135.863L3585.42,135.847L3585.45,135.831L3585.47,135.816L3585.5,135.802L3585.53,135.787L3585.56,135.774L3585.59,135.76L3585.62,135.748L3585.65,135.735L3585.68,135.723L3585.7,135.712L3585.73,135.701L3585.76,135.69L3585.79,135.68L3585.82,135.671L3585.86,135.662L3585.89,135.653L3585.92,135.645L3585.95,135.637L3585.98,135.63L3586.01,135.624L3586.04,135.618L3586.07,135.612L3586.1,135.607L3586.13,135.602L3586.16,135.598L3586.2,135.594L3586.23,135.591L3586.26,135.588L3586.29,135.586L3586.32,135.585L3586.35,135.583L3586.39,135.583L3586.44,135.582L3586.47,135.581L3586.51,135.578L3586.56,135.575L3586.62,135.57L3586.68,135.564L3586.83,135.548L3587,135.531L3587.1,135.522L3587.2,135.513L3587.31,135.505L3587.42,135.498L3587.54,135.494L3587.64,135.493L3587.68,135.493L3587.71,135.493Z"/><path d="M3615.26,120.709L3615.36,120.719L3615.46,120.732L3615.56,120.75L3615.66,120.772L3615.76,120.799L3615.87,120.831L3615.97,120.867L3616.07,120.909L3616.17,120.956L3616.27,121.008L3616.37,121.065L3616.46,121.125L3616.55,121.192L3616.64,121.261L3616.72,121.334L3616.81,121.416L3616.87,121.486L3616.93,121.552L3616.98,121.62L3617.03,121.691L3617.07,121.754L3617.12,121.829L3617.18,121.942L3617.23,122.058L3617.27,122.17L3617.31,122.278L3617.34,122.382L3617.37,122.483L3617.39,122.583L3617.41,122.681L3617.43,122.777L3617.44,122.872L3617.45,122.967L3617.46,123.063L3617.47,123.157L3617.48,123.251L3617.48,123.348L3617.49,123.442L3617.49,123.537L3617.49,123.633L3617.49,123.728L3617.49,123.824L3617.49,123.919L3617.49,124.014L3617.49,124.111L3617.48,124.206L3617.48,124.248L3617.51,124.325L3617.55,124.429L3617.58,124.53L3617.6,124.623L3617.62,124.711L3617.63,124.804L3617.64,124.932L3617.64,125.06L3617.64,125.174L3617.63,125.274L3617.62,125.365L3617.61,125.449L3617.6,125.53L3617.57,125.66L3617.55,125.773L3617.58,125.863L3617.61,125.953L3617.64,126.044L3617.67,126.141L3617.73,126.338L3617.79,126.55L3617.85,126.769L3617.91,126.99L3617.97,127.208L3618.02,127.419L3618.12,127.786L3618.18,128.046L3618.2,128.145L3618.23,128.286L3618.24,128.349L3618.27,128.384L3618.35,128.464L3618.43,128.548L3618.51,128.636L3618.59,128.73L3618.67,128.828L3618.74,128.93L3618.82,129.037L3618.89,129.148L3618.96,129.263L3619.03,129.379L3619.06,129.445L3619.1,129.519L3619.14,129.61L3619.18,129.709L3619.22,129.809L3619.25,129.903L3619.28,129.995L3619.3,130.088L3619.32,130.176L3619.34,130.263L3619.35,130.349L3619.36,130.434L3619.37,130.52L3619.38,130.604L3619.39,130.688L3619.39,130.771L3619.4,130.852L3619.4,130.935L3619.4,131.019L3619.4,131.101L3619.4,131.182L3619.4,131.267L3619.4,131.425L3619.39,131.587L3619.38,131.748L3619.36,131.909L3619.35,132.067L3619.33,132.224L3619.3,132.379L3619.28,132.532L3619.25,132.682L3619.22,132.83L3619.2,132.974L3619.16,133.116L3619.13,133.253L3619.09,133.389L3619.05,133.521L3619.01,133.651L3618.97,133.774L3618.94,133.844L3618.91,133.911L3618.89,133.979L3618.85,134.048L3618.82,134.124L3618.77,134.199L3618.72,134.283L3618.66,134.374L3618.58,134.476L3618.52,134.538L3618.43,134.632L3618.37,134.691L3618.24,134.785L3618.12,134.863L3618,134.927L3617.88,134.979L3617.77,135.019L3617.76,135.022L3617.77,135.116L3617.78,135.225L3617.78,135.337L3617.78,135.45L3617.77,135.571L3617.76,135.694L3617.73,135.82L3617.7,135.95L3617.67,136.078L3617.62,136.208L3617.56,136.34L3617.5,136.456L3617.46,136.529L3617.42,136.591L3617.38,136.652L3617.33,136.708L3617.29,136.765L3617.24,136.826L3617.19,136.878L3617.13,136.944L3617.05,137.016L3617,137.054L3616.89,137.132L3616.82,137.182L3616.69,137.249L3616.59,137.298L3616.5,137.337L3616.41,137.369L3616.33,137.397L3616.24,137.421L3616.16,137.444L3616.09,137.464L3616.01,137.484L3615.93,137.502L3615.84,137.52L3615.76,137.537L3615.59,137.568L3615.41,137.598L3615.23,137.625L3615.04,137.65L3614.85,137.673L3614.65,137.694L3614.45,137.712L3614.24,137.727L3614.04,137.74L3613.94,137.745L3613.83,137.749L3613.73,137.752L3613.63,137.754L3613.53,137.756L3613.42,137.756L3613.32,137.756L3613.22,137.754L3613.12,137.751L3613.02,137.747L3612.92,137.741L3612.82,137.734L3612.72,137.725L3612.62,137.715L3612.52,137.702L3612.41,137.687L3612.31,137.67L3612.21,137.649L3612.1,137.625L3611.99,137.596L3611.88,137.561L3611.76,137.518L3611.65,137.471L3611.58,137.436L3611.51,137.401L3611.44,137.362L3611.37,137.318L3611.3,137.268L3611.22,137.212L3611.15,137.148L3611.07,137.077L3610.99,136.995L3610.92,136.904L3610.85,136.804L3610.78,136.692L3610.74,136.625L3610.69,136.504L3610.66,136.437L3610.64,136.368L3610.61,136.238L3610.6,136.223L3610.58,136.091L3610.57,136.011L3610.57,135.93L3610.57,135.779L3610.59,135.628L3610.62,135.48L3610.67,135.337L3610.73,135.198L3610.8,135.067L3610.89,134.944L3610.99,134.83L3611.1,134.727L3611.22,134.636L3611.35,134.557L3611.49,134.492L3611.63,134.441L3611.78,134.405L3611.93,134.384L3612.08,134.379L3612.23,134.388L3612.38,134.413L3612.53,134.453L3612.67,134.507L3612.8,134.575L3612.93,134.657L3613.05,134.751L3613.05,134.754L3613.11,134.757L3613.16,134.761L3613.23,134.763L3613.29,134.765L3613.36,134.766L3613.43,134.767L3613.5,134.767L3613.57,134.766L3613.65,134.764L3613.73,134.761L3613.8,134.758L3613.88,134.755L3614.04,134.745L3614.2,134.733L3614.36,134.719L3614.4,134.715L3614.37,134.671L3614.29,134.559L3614.25,134.498L3614.2,134.43L3614.15,134.344L3614.11,134.281L3614.05,134.16L3614.05,134.15L3614.01,134.068L3613.99,133.985L3613.98,133.977L3613.95,133.873L3613.93,133.768L3613.92,133.661L3613.92,133.655L3613.92,133.511L3613.93,133.367L3613.95,133.224L3613.98,133.085L3614.03,132.949L3614.03,132.945L3614.09,132.829L3614.16,132.718L3614.23,132.612L3614.31,132.514L3614.41,132.423L3614.42,132.408L3614.53,132.32L3614.6,132.269L3614.72,132.192L3614.84,132.128L3614.95,132.077L3615.07,132.036L3615.18,132.005L3615.28,131.981L3615.37,131.964L3615.46,131.952L3615.55,131.943L3615.63,131.938L3615.7,131.936L3615.77,131.936L3615.84,131.938L3615.91,131.941L3616.03,131.95L3616.14,131.963L3616.25,131.978L3616.34,131.992L3616.35,131.936L3616.36,131.828L3616.38,131.719L3616.39,131.611L3616.4,131.504L3616.41,131.399L3616.41,131.297L3616.41,131.195L3616.41,131.152L3616.41,131.107L3616.41,131.064L3616.41,131.023L3616.41,130.985L3616.41,130.947L3616.41,130.912L3616.41,130.882L3616.4,130.853L3616.4,130.83L3616.4,130.808L3616.39,130.795L3616.38,130.774L3616.36,130.741L3616.34,130.71L3616.32,130.681L3616.3,130.652L3616.28,130.625L3616.26,130.597L3616.23,130.57L3616.2,130.542L3616.18,130.515L3616.15,130.485L3616.12,130.456L3616.08,130.426L3616.04,130.394L3616.01,130.362L3615.96,130.328L3615.92,130.294L3615.82,130.217L3615.73,130.15L3615.67,130.143L3615.57,130.131L3615.47,130.117L3615.38,130.103L3615.3,130.087L3615.21,130.072L3615.14,130.056L3615.06,130.039L3614.93,130.009L3614.82,129.981L3614.73,129.956L3614.66,129.937L3614.51,129.886L3614.38,129.821L3614.24,129.742L3614.12,129.649L3614.01,129.545L3613.91,129.429L3613.82,129.304L3613.74,129.17L3613.68,129.029L3613.63,128.882L3613.6,128.731L3613.58,128.578L3613.58,128.424L3613.6,128.271L3613.63,128.12L3613.68,127.974L3613.74,127.833L3613.82,127.699L3613.91,127.573L3614.01,127.458L3614.12,127.353L3614.24,127.261L3614.38,127.181L3614.51,127.116L3614.61,127.085L3614.53,127.03L3614.44,126.955L3614.36,126.887L3614.28,126.803L3614.21,126.727L3614.15,126.65L3614.08,126.57L3614.02,126.49L3613.96,126.409L3613.9,126.326L3613.85,126.241L3613.8,126.155L3613.75,126.068L3613.71,125.977L3613.67,125.886L3613.63,125.795L3613.59,125.701L3613.56,125.603L3613.53,125.507L3613.51,125.409L3613.49,125.31L3613.47,125.206L3613.46,125.101L3613.46,124.998L3613.46,124.89L3613.46,124.779L3613.47,124.671L3613.48,124.56L3613.49,124.517L3613.3,124.644L3613.09,124.786L3612.88,124.93L3612.67,125.073L3612.46,125.212L3612.35,125.283L3612.24,125.351L3612.13,125.418L3612.02,125.484L3611.91,125.549L3611.8,125.611L3611.69,125.673L3611.57,125.732L3611.46,125.789L3611.34,125.84L3611.27,125.869L3611.2,125.895L3611.14,125.919L3611.07,125.943L3611,125.966L3610.92,125.987L3610.85,126.007L3610.77,126.025L3610.68,126.041L3610.59,126.055L3610.5,126.065L3610.4,126.071L3610.3,126.073L3610.19,126.07L3610.08,126.059L3609.96,126.041L3609.83,126.015L3609.71,125.978L3609.58,125.931L3609.46,125.873L3609.33,125.803L3609.21,125.724L3609.1,125.635L3609,125.546L3608.92,125.458L3608.85,125.377L3608.78,125.294L3608.72,125.211L3608.66,125.129L3608.6,125.046L3608.55,124.963L3608.5,124.882L3608.46,124.8L3608.42,124.718L3608.38,124.638L3608.34,124.558L3608.31,124.48L3608.27,124.401L3608.24,124.323L3608.22,124.245L3608.19,124.169L3608.16,124.09L3608.12,123.946L3608.07,123.8L3608.03,123.657L3608,123.518L3607.96,123.381L3607.9,123.125L3607.87,123.003L3607.83,123.044L3607.75,123.126L3607.67,123.207L3607.59,123.287L3607.52,123.364L3607.46,123.436L3607.4,123.504L3607.35,123.563L3607.26,123.665L3607.21,123.727L3607.19,123.749L3607.09,123.863L3606.97,123.965L3606.85,124.055L3606.72,124.132L3606.58,124.195L3606.43,124.244L3606.28,124.277L3606.13,124.296L3605.98,124.299L3605.83,124.286L3605.68,124.258L3605.53,124.215L3605.39,124.157L3605.26,124.085L3605.13,123.999L3605.01,123.902L3604.91,123.792L3604.81,123.673L3604.73,123.544L3604.66,123.408L3604.63,123.334L3604.59,123.256L3604.54,123.149L3604.48,123.015L3604.44,122.946L3604.4,122.872L3604.36,122.793L3604.32,122.712L3604.27,122.63L3604.22,122.548L3604.18,122.465L3604.13,122.384L3604.07,122.304L3604.02,122.226L3603.97,122.151L3603.92,122.077L3603.9,122.048L3603.87,122.015L3603.85,121.985L3603.84,121.972L3603.78,121.999L3603.72,122.032L3603.66,122.069L3603.59,122.108L3603.52,122.152L3603.45,122.198L3603.38,122.247L3603.3,122.298L3603.22,122.352L3603.14,122.408L3603.06,122.466L3602.98,122.525L3602.81,122.65L3602.64,122.779L3602.47,122.91L3602.3,123.044L3602.13,123.177L3601.95,123.31L3601.78,123.441L3601.62,123.567L3601.53,123.631L3601.44,123.692L3601.36,123.752L3601.27,123.812L3601.18,123.87L3601.09,123.927L3600.99,123.983L3600.9,124.038L3600.8,124.091L3600.69,124.144L3600.58,124.19L3600.51,124.218L3600.44,124.242L3600.37,124.265L3600.29,124.287L3600.21,124.306L3600.13,124.324L3600.03,124.338L3599.93,124.348L3599.82,124.352L3599.7,124.349L3599.57,124.337L3599.43,124.314L3599.36,124.293L3599.23,124.254L3599.21,124.248L3599.08,124.194L3599.07,124.187L3598.94,124.12L3598.93,124.111L3598.86,124.07L3598.8,124.024L3598.78,124.014L3598.67,123.925L3598.66,123.914L3598.57,123.827L3598.49,123.733L3598.48,123.722L3598.42,123.638L3598.37,123.551L3598.33,123.485L3598.28,123.38L3598.24,123.303L3598.22,123.235L3598.19,123.168L3598.15,123.06L3598.12,122.945L3598.08,122.828L3598,122.574L3597.95,122.442L3597.91,122.305L3597.86,122.174L3597.72,122.432L3597.48,122.855L3597.36,123.075L3597.23,123.295L3597.11,123.517L3596.98,123.736L3596.85,123.954L3596.72,124.168L3596.59,124.377L3596.47,124.577L3596.4,124.678L3596.34,124.775L3596.27,124.869L3596.21,124.963L3596.14,125.054L3596.08,125.143L3596.02,125.23L3595.95,125.316L3595.89,125.4L3595.82,125.483L3595.75,125.565L3595.67,125.647L3595.59,125.73L3595.5,125.815L3595.41,125.896L3595.34,125.947L3595.28,125.994L3595.2,126.042L3595.12,126.091L3595.03,126.14L3594.92,126.187L3594.8,126.233L3594.72,126.254L3594.59,126.285L3594.57,126.287L3594.49,126.299L3594.4,126.306L3594.39,126.307L3594.3,126.31L3594.2,126.307L3594.2,126.306L3594.11,126.297L3594.02,126.283L3594.01,126.282L3593.93,126.266L3593.86,126.245L3593.85,126.243L3593.71,126.195L3593.7,126.191L3593.62,126.155L3593.54,126.114L3593.53,126.104L3593.45,126.059L3593.38,126.01L3593.36,125.996L3593.25,125.912L3593.19,125.861L3593.11,125.775L3593.03,125.696L3592.97,125.624L3592.92,125.556L3592.87,125.49L3592.83,125.425L3592.78,125.358L3592.71,125.24L3592.64,125.115L3592.56,124.988L3592.49,124.858L3592.41,124.725L3592.34,124.59L3592.19,124.315L3592.07,124.082L3592.06,124.121L3592,124.308L3591.95,124.493L3591.92,124.589L3591.89,124.684L3591.86,124.778L3591.83,124.871L3591.8,124.966L3591.76,125.06L3591.73,125.156L3591.69,125.253L3591.65,125.35L3591.6,125.45L3591.55,125.551L3591.49,125.656L3591.42,125.764L3591.35,125.868L3591.3,125.934L3591.25,125.992L3591.2,126.05L3591.14,126.113L3591.08,126.175L3591.01,126.237L3590.93,126.299L3590.85,126.359L3590.75,126.419L3590.65,126.474L3590.54,126.524L3590.43,126.563L3590.35,126.592L3590.27,126.612L3590.2,126.631L3590.12,126.648L3590.05,126.662L3589.97,126.674L3589.89,126.683L3589.82,126.69L3589.74,126.694L3589.66,126.696L3589.59,126.696L3589.51,126.693L3589.44,126.688L3589.36,126.68L3589.29,126.67L3589.22,126.659L3589.15,126.645L3589.08,126.629L3589.01,126.611L3588.94,126.592L3588.87,126.571L3588.8,126.545L3588.68,126.5L3588.57,126.447L3588.45,126.389L3588.35,126.329L3588.24,126.266L3588.15,126.201L3588.06,126.135L3587.97,126.068L3587.89,126L3587.81,125.932L3587.74,125.863L3587.66,125.793L3587.6,125.724L3587.53,125.656L3587.47,125.587L3587.41,125.518L3587.35,125.45L3587.29,125.382L3587.23,125.312L3587.13,125.183L3587.03,125.055L3586.93,124.93L3586.85,124.81L3586.84,124.835L3586.82,125L3586.8,125.091L3586.78,125.179L3586.76,125.271L3586.74,125.364L3586.72,125.459L3586.7,125.558L3586.67,125.658L3586.64,125.76L3586.6,125.864L3586.56,125.971L3586.51,126.081L3586.46,126.192L3586.4,126.304L3586.34,126.41L3586.3,126.478L3586.26,126.534L3586.22,126.593L3586.18,126.651L3586.13,126.707L3586.08,126.766L3586.03,126.821L3585.97,126.884L3585.89,126.957L3585.8,127.036L3585.69,127.115L3585.57,127.19L3585.49,127.228L3585.36,127.285L3585.35,127.293L3585.27,127.319L3585.2,127.341L3585.18,127.346L3585.1,127.366L3585.02,127.382L3585,127.384L3584.91,127.395L3584.83,127.402L3584.81,127.402L3584.72,127.404L3584.64,127.4L3584.62,127.398L3584.53,127.389L3584.44,127.375L3584.43,127.372L3584.35,127.353L3584.26,127.33L3584.25,127.325L3584.18,127.3L3584.1,127.271L3584.09,127.264L3583.95,127.197L3583.88,127.157L3583.76,127.075L3583.66,126.992L3583.57,126.911L3583.49,126.833L3583.43,126.755L3583.37,126.68L3583.32,126.61L3583.28,126.544L3583.24,126.48L3583.2,126.41L3583.15,126.304L3583.11,126.212L3583.05,126.223L3582.93,126.248L3582.8,126.276L3582.66,126.307L3582.53,126.34L3582.4,126.374L3582.27,126.411L3582.14,126.448L3582.02,126.485L3581.91,126.523L3581.81,126.554L3581.82,126.598L3581.83,126.651L3581.84,126.704L3581.86,126.758L3581.87,126.815L3581.89,126.873L3581.9,126.932L3581.92,126.992L3581.94,127.052L3581.96,127.113L3581.98,127.175L3582,127.237L3582.02,127.296L3582.07,127.422L3582.12,127.542L3582.17,127.659L3582.22,127.773L3582.26,127.881L3582.31,127.983L3582.35,128.077L3582.39,128.163L3582.43,128.237L3582.49,128.361L3582.53,128.433L3582.55,128.455L3582.61,128.593L3582.66,128.737L3582.7,128.885L3582.72,129.037L3582.73,129.19L3582.72,129.342L3582.69,129.493L3582.65,129.64L3582.6,129.783L3582.53,129.919L3582.44,130.047L3582.35,130.166L3582.24,130.275L3582.12,130.372L3582,130.457L3581.86,130.528L3581.72,130.585L3581.57,130.627L3581.42,130.654L3581.27,130.666L3581.19,130.667L3581.11,130.671L3581,130.676L3580.85,130.686L3580.78,130.692L3580.7,130.699L3580.62,130.708L3580.53,130.718L3580.44,130.729L3580.35,130.741L3580.26,130.755L3580.18,130.77L3580.09,130.786L3580.01,130.803L3579.93,130.822L3579.85,130.843L3579.81,130.851L3579.78,130.861L3579.75,130.871L3579.72,130.881L3579.7,130.885L3579.69,130.924L3579.68,130.978L3579.66,131.034L3579.65,131.091L3579.64,131.15L3579.63,131.19L3579.65,131.19L3579.72,131.188L3579.79,131.185L3579.95,131.177L3580.11,131.168L3580.28,131.157L3580.47,131.146L3580.66,131.136L3580.85,131.128L3580.95,131.126L3581.05,131.124L3581.16,131.124L3581.26,131.125L3581.37,131.128L3581.48,131.133L3581.59,131.14L3581.7,131.151L3581.82,131.164L3581.94,131.181L3582.06,131.202L3582.18,131.228L3582.3,131.258L3582.37,131.278L3582.44,131.298L3582.5,131.32L3582.57,131.343L3582.64,131.369L3582.7,131.397L3582.77,131.427L3582.84,131.46L3582.91,131.495L3582.97,131.534L3583.04,131.574L3583.11,131.617L3583.18,131.664L3583.24,131.714L3583.31,131.766L3583.38,131.822L3583.44,131.88L3583.5,131.941L3583.56,132.007L3583.62,132.074L3583.67,132.144L3583.73,132.217L3583.78,132.289L3583.82,132.366L3583.87,132.445L3583.9,132.5L3583.94,132.581L3583.97,132.665L3583.98,132.677L3584.01,132.79L3584.04,132.905L3584.06,133.023L3584.06,133.035L3584.07,133.14L3584.07,133.245L3584.07,133.349L3584.07,133.362L3584.05,133.512L3584.01,133.659L3584.01,133.672L3583.97,133.784L3583.92,133.892L3583.91,133.905L3583.87,133.997L3583.81,134.085L3583.8,134.098L3583.71,134.22L3583.66,134.283L3583.57,134.377L3583.49,134.451L3583.41,134.512L3583.34,134.564L3583.27,134.608L3583.21,134.645L3583.15,134.683L3583.05,134.739L3582.94,134.792L3582.84,134.839L3582.74,134.884L3582.64,134.926L3582.55,134.966L3582.45,135.006L3582.26,135.079L3582.28,135.097L3582.31,135.114L3582.33,135.129L3582.36,135.141L3582.38,135.153L3582.39,135.162L3582.41,135.171L3582.43,135.178L3582.44,135.184L3582.46,135.189L3582.47,135.194L3582.49,135.198L3582.5,135.202L3582.52,135.206L3582.53,135.209L3582.55,135.213L3582.57,135.216L3582.59,135.218L3582.61,135.221L3582.63,135.223L3582.66,135.224L3582.69,135.225L3582.72,135.226L3582.76,135.226L3582.79,135.226L3582.83,135.225L3582.88,135.223L3582.92,135.22L3583.02,135.213L3583.13,135.204L3583.25,135.191L3583.38,135.177L3583.68,135.145L3583.84,135.128L3584.01,135.11L3584.2,135.094L3584.39,135.079L3584.59,135.067L3584.69,135.062L3584.8,135.057L3584.91,135.053L3585.02,135.051L3585.14,135.049L3585.25,135.049L3585.4,135.056L3585.55,135.078L3585.7,135.115L3585.84,135.167L3585.97,135.233L3586.1,135.312L3586.22,135.404L3586.33,135.508L3586.43,135.623L3586.52,135.746L3586.59,135.878L3586.65,136.017L3586.7,136.162L3586.73,136.31L3586.75,136.46L3586.75,136.612L3586.73,136.762L3586.7,136.911L3586.66,137.056L3586.6,137.195L3586.53,137.328L3586.44,137.452L3586.34,137.568L3586.23,137.673L3586.11,137.766L3585.99,137.847L3585.85,137.914L3585.71,137.967L3585.56,138.006L3585.41,138.029L3585.26,138.038L3585.17,138.038L3585.08,138.04L3585,138.042L3584.91,138.044L3584.83,138.048L3584.76,138.052L3584.6,138.062L3584.44,138.073L3584.29,138.087L3584.14,138.101L3584,138.117L3583.71,138.149L3583.56,138.165L3583.41,138.18L3583.26,138.193L3583.1,138.204L3583.02,138.209L3582.94,138.212L3582.86,138.214L3582.77,138.216L3582.68,138.215L3582.6,138.213L3582.51,138.21L3582.42,138.204L3582.33,138.197L3582.23,138.187L3582.14,138.174L3582.05,138.159L3581.95,138.142L3581.85,138.121L3581.75,138.097L3581.66,138.07L3581.56,138.04L3581.46,138.007L3581.36,137.971L3581.26,137.932L3581.17,137.889L3581.07,137.844L3580.98,137.795L3580.88,137.744L3580.79,137.689L3580.7,137.633L3580.61,137.574L3580.52,137.511L3580.43,137.447L3580.35,137.38L3580.26,137.311L3580.17,137.239L3580.09,137.165L3580.01,137.09L3579.92,137.011L3579.81,136.9L3579.73,136.81L3579.67,136.73L3579.63,136.668L3579.59,136.613L3579.55,136.556L3579.52,136.496L3579.48,136.433L3579.44,136.366L3579.4,136.296L3579.36,136.221L3579.33,136.143L3579.28,136.06L3579.24,135.973L3579.2,135.881L3579.17,135.786L3579.13,135.686L3579.09,135.58L3579.06,135.471L3579.02,135.356L3578.99,135.233L3578.97,135.113L3578.95,135.039L3578.95,134.972L3578.94,134.899L3578.93,134.823L3578.92,134.751L3578.92,134.671L3578.92,134.59L3578.92,134.507L3578.93,134.418L3578.94,134.328L3578.95,134.237L3578.97,134.155L3578.87,134.144L3578.75,134.127L3578.63,134.106L3578.51,134.08L3578.39,134.05L3578.32,134.029L3578.25,134.009L3578.19,133.987L3578.12,133.962L3578.06,133.935L3577.99,133.906L3577.92,133.873L3577.85,133.838L3577.78,133.801L3577.71,133.76L3577.64,133.716L3577.58,133.669L3577.51,133.617L3577.44,133.564L3577.37,133.506L3577.31,133.445L3577.25,133.381L3577.19,133.314L3577.13,133.244L3577.07,133.17L3577.02,133.095L3576.97,133.015L3576.92,132.937L3576.88,132.855L3576.84,132.769L3576.8,132.68L3576.77,132.591L3576.74,132.508L3576.72,132.425L3576.69,132.343L3576.67,132.261L3576.66,132.183L3576.64,132.107L3576.63,132.029L3576.62,131.952L3576.62,131.877L3576.61,131.805L3576.61,131.733L3576.6,131.662L3576.6,131.585L3576.6,131.453L3576.61,131.317L3576.62,131.186L3576.63,131.056L3576.65,130.927L3576.66,130.803L3576.68,130.68L3576.71,130.559L3576.73,130.442L3576.76,130.325L3576.79,130.213L3576.82,130.102L3576.85,129.994L3576.89,129.888L3576.92,129.785L3576.96,129.682L3577,129.582L3577.04,129.483L3577.09,129.384L3577.14,129.281L3577.2,129.174L3577.26,129.073L3577.31,129.002L3577.36,128.933L3577.42,128.86L3577.49,128.788L3577.58,128.707L3577.66,128.635L3577.74,128.568L3577.83,128.507L3577.91,128.451L3577.99,128.4L3578.07,128.352L3578.15,128.307L3578.23,128.266L3578.31,128.227L3578.39,128.191L3578.47,128.158L3578.55,128.126L3578.62,128.097L3578.7,128.069L3578.78,128.043L3578.85,128.019L3578.93,127.996L3579,127.974L3579.08,127.952L3579.09,127.95L3579.06,127.866L3579.03,127.77L3579.01,127.674L3578.98,127.576L3578.95,127.477L3578.93,127.375L3578.91,127.273L3578.89,127.171L3578.87,127.066L3578.85,126.959L3578.83,126.85L3578.82,126.741L3578.81,126.63L3578.8,126.516L3578.8,126.399L3578.8,126.283L3578.8,126.162L3578.81,126.039L3578.82,125.914L3578.84,125.793L3578.85,125.721L3578.86,125.655L3578.88,125.586L3578.89,125.519L3578.91,125.452L3578.93,125.383L3578.95,125.313L3578.98,125.244L3579.01,125.175L3579.04,125.106L3579.07,125.034L3579.11,124.964L3579.15,124.894L3579.19,124.825L3579.24,124.756L3579.28,124.687L3579.34,124.62L3579.39,124.555L3579.45,124.491L3579.52,124.411L3579.62,124.323L3579.72,124.246L3579.81,124.188L3579.88,124.143L3579.95,124.103L3580.01,124.068L3580.08,124.035L3580.15,124.003L3580.26,123.948L3580.39,123.894L3580.53,123.841L3580.67,123.789L3580.81,123.737L3580.96,123.686L3581.12,123.635L3581.28,123.585L3581.45,123.537L3581.62,123.489L3581.79,123.444L3581.96,123.4L3582.14,123.359L3582.32,123.32L3582.5,123.286L3582.59,123.268L3582.68,123.253L3582.77,123.238L3582.87,123.225L3582.96,123.212L3583.05,123.201L3583.14,123.191L3583.23,123.182L3583.33,123.175L3583.42,123.17L3583.51,123.166L3583.61,123.164L3583.71,123.165L3583.81,123.168L3583.91,123.174L3584.01,123.183L3584.09,123.193L3584.1,123.167L3584.12,123.07L3584.15,122.968L3584.19,122.866L3584.22,122.762L3584.27,122.653L3584.32,122.542L3584.38,122.43L3584.43,122.324L3584.48,122.257L3584.51,122.198L3584.56,122.14L3584.6,122.083L3584.65,122.022L3584.7,121.964L3584.75,121.907L3584.8,121.851L3584.86,121.795L3584.92,121.74L3584.99,121.687L3585.05,121.637L3585.12,121.587L3585.2,121.54L3585.27,121.497L3585.35,121.455L3585.43,121.416L3585.51,121.381L3585.59,121.349L3585.67,121.321L3585.75,121.296L3585.84,121.274L3585.92,121.255L3586.01,121.24L3586.09,121.228L3586.17,121.219L3586.25,121.213L3586.34,121.21L3586.42,121.209L3586.5,121.211L3586.58,121.216L3586.66,121.222L3586.73,121.231L3586.81,121.241L3586.89,121.254L3586.96,121.268L3587.04,121.284L3587.11,121.302L3587.18,121.321L3587.26,121.341L3587.33,121.363L3587.41,121.389L3587.47,121.41L3587.55,121.439L3587.66,121.49L3587.78,121.548L3587.88,121.61L3587.98,121.675L3588.08,121.741L3588.16,121.806L3588.24,121.873L3588.32,121.94L3588.39,122.008L3588.46,122.075L3588.53,122.141L3588.59,122.208L3588.65,122.273L3588.71,122.339L3588.76,122.404L3588.82,122.469L3588.87,122.536L3588.97,122.659L3589.06,122.782L3589.15,122.902L3589.25,123.037L3589.27,122.977L3589.32,122.791L3589.37,122.6L3589.43,122.405L3589.49,122.212L3589.52,122.109L3589.55,122.011L3589.58,121.911L3589.62,121.811L3589.66,121.71L3589.7,121.609L3589.74,121.51L3589.78,121.407L3589.83,121.304L3589.88,121.202L3589.94,121.097L3590,120.99L3590.06,120.89L3590.1,120.829L3590.14,120.773L3590.19,120.717L3590.23,120.662L3590.28,120.605L3590.33,120.549L3590.39,120.492L3590.45,120.435L3590.51,120.379L3590.58,120.321L3590.66,120.267L3590.73,120.214L3590.82,120.162L3590.91,120.113L3591.01,120.069L3591.11,120.029L3591.22,119.993L3591.33,119.964L3591.44,119.941L3591.56,119.925L3591.67,119.917L3591.79,119.916L3591.91,119.922L3592.02,119.935L3592.13,119.955L3592.24,119.98L3592.34,120.011L3592.44,120.046L3592.53,120.085L3592.63,120.129L3592.75,120.192L3592.86,120.261L3592.96,120.333L3593.06,120.405L3593.15,120.479L3593.23,120.553L3593.31,120.627L3593.38,120.703L3593.46,120.779L3593.53,120.856L3593.59,120.932L3593.65,121.009L3593.72,121.087L3593.77,121.165L3593.83,121.243L3593.89,121.322L3593.94,121.401L3594,121.481L3594.05,121.561L3594.1,121.643L3594.2,121.801L3594.3,121.962L3594.39,122.122L3594.43,122.178L3594.52,122.016L3594.64,121.809L3594.76,121.6L3594.88,121.392L3595.11,120.979L3595.33,120.586L3595.53,120.225L3595.7,119.908L3595.78,119.766L3595.86,119.637L3595.93,119.518L3595.99,119.412L3596.03,119.35L3596.08,119.282L3596.14,119.195L3596.23,119.095L3596.32,119.006L3596.39,118.948L3596.45,118.892L3596.52,118.836L3596.59,118.782L3596.66,118.729L3596.74,118.678L3596.82,118.631L3596.9,118.585L3596.99,118.541L3597.08,118.501L3597.17,118.464L3597.26,118.431L3597.36,118.402L3597.46,118.377L3597.56,118.357L3597.66,118.342L3597.77,118.332L3597.87,118.327L3597.97,118.328L3598.08,118.334L3598.18,118.345L3598.28,118.361L3598.38,118.381L3598.47,118.406L3598.57,118.434L3598.66,118.467L3598.74,118.502L3598.82,118.539L3598.9,118.58L3598.98,118.622L3599.05,118.665L3599.12,118.71L3599.18,118.757L3599.24,118.803L3599.3,118.85L3599.36,118.899L3599.41,118.948L3599.47,118.997L3599.52,119.047L3599.56,119.096L3599.61,119.15L3599.69,119.244L3599.77,119.344L3599.85,119.443L3599.91,119.543L3599.98,119.642L3600.04,119.741L3600.1,119.841L3600.15,119.939L3600.2,120.039L3600.25,120.137L3600.3,120.234L3600.35,120.332L3600.39,120.429L3600.43,120.526L3600.47,120.622L3600.49,120.665L3600.64,120.545L3600.83,120.404L3601.02,120.26L3601.21,120.116L3601.31,120.043L3601.41,119.971L3601.51,119.899L3601.62,119.828L3601.72,119.757L3601.83,119.688L3601.93,119.62L3602.04,119.553L3602.15,119.487L3602.26,119.423L3602.38,119.36L3602.49,119.3L3602.61,119.242L3602.74,119.186L3602.86,119.135L3602.93,119.108L3602.99,119.084L3603.06,119.06L3603.13,119.038L3603.19,119.016L3603.26,118.996L3603.34,118.977L3603.41,118.959L3603.49,118.943L3603.56,118.929L3603.64,118.916L3603.72,118.906L3603.8,118.898L3603.89,118.892L3603.98,118.889L3604.07,118.89L3604.16,118.893L3604.25,118.9L3604.34,118.912L3604.44,118.927L3604.54,118.947L3604.63,118.972L3604.73,119.002L3604.83,119.037L3604.93,119.077L3605.02,119.121L3605.12,119.172L3605.21,119.225L3605.3,119.28L3605.38,119.336L3605.46,119.393L3605.53,119.45L3605.6,119.509L3605.67,119.569L3605.74,119.629L3605.8,119.689L3605.86,119.749L3605.92,119.811L3605.97,119.872L3606.03,119.934L3606.08,119.996L3606.13,120.057L3606.18,120.12L3606.23,120.182L3606.28,120.244L3606.33,120.31L3606.36,120.35L3606.37,120.336L3606.45,120.279L3606.52,120.222L3606.6,120.165L3606.68,120.109L3606.75,120.054L3606.84,120L3606.92,119.947L3607.01,119.895L3607.1,119.844L3607.19,119.795L3607.29,119.747L3607.39,119.701L3607.5,119.658L3607.61,119.618L3607.73,119.581L3607.86,119.549L3607.98,119.524L3608.06,119.512L3608.13,119.504L3608.21,119.497L3608.28,119.493L3608.36,119.492L3608.44,119.494L3608.53,119.499L3608.61,119.507L3608.7,119.52L3608.78,119.536L3608.87,119.557L3608.96,119.583L3609.05,119.613L3609.14,119.647L3609.22,119.686L3609.31,119.731L3609.39,119.778L3609.47,119.83L3609.55,119.886L3609.63,119.946L3609.7,120.008L3609.77,120.072L3609.85,120.153L3609.92,120.236L3609.98,120.318L3610.05,120.401L3610.1,120.484L3610.16,120.566L3610.2,120.647L3610.25,120.729L3610.29,120.809L3610.33,120.889L3610.37,120.968L3610.4,121.045L3610.43,121.122L3610.46,121.198L3610.49,121.274L3610.51,121.348L3610.54,121.423L3610.57,121.499L3610.61,121.637L3610.65,121.779L3610.68,121.916L3610.72,122.051L3610.75,122.183L3610.81,122.431L3610.87,122.669L3610.87,122.679L3611.01,122.585L3611.21,122.452L3611.42,122.311L3611.63,122.164L3611.86,122.015L3611.97,121.938L3612.09,121.862L3612.21,121.786L3612.33,121.71L3612.45,121.635L3612.57,121.561L3612.7,121.487L3612.82,121.415L3612.95,121.344L3613.08,121.275L3613.21,121.207L3613.35,121.142L3613.48,121.08L3613.62,121.022L3613.69,120.991L3613.76,120.963L3613.83,120.936L3613.91,120.91L3613.98,120.885L3614.06,120.861L3614.13,120.839L3614.21,120.817L3614.29,120.797L3614.37,120.778L3614.45,120.761L3614.54,120.746L3614.62,120.733L3614.71,120.722L3614.8,120.713L3614.89,120.706L3614.98,120.702L3615.07,120.701L3615.16,120.704L3615.26,120.709ZM3613.56,135.816L3613.55,135.767L3613.54,135.7L3613.56,135.816Z"/><path d="M3618.62,140.201L3618.69,140.205L3618.76,140.21L3618.83,140.218L3618.9,140.227L3618.97,140.239L3619.04,140.254L3619.12,140.27L3619.19,140.29L3619.27,140.312L3619.34,140.338L3619.42,140.367L3619.5,140.399L3619.58,140.435L3619.65,140.473L3619.73,140.516L3619.8,140.564L3619.88,140.613L3619.95,140.665L3620.02,140.724L3620.09,140.784L3620.14,140.828L3620.15,140.842L3620.16,140.85L3620.19,140.868L3620.21,140.884L3620.25,140.903L3620.29,140.924L3620.34,140.948L3620.39,140.973L3620.45,141L3620.51,141.027L3620.65,141.09L3620.82,141.158L3620.99,141.232L3621.08,141.274L3621.18,141.317L3621.28,141.364L3621.38,141.414L3621.49,141.467L3621.6,141.524L3621.7,141.586L3621.82,141.652L3621.92,141.721L3621.99,141.763L3622.04,141.803L3622.1,141.846L3622.16,141.889L3622.22,141.933L3622.27,141.98L3622.33,142.029L3622.39,142.081L3622.45,142.133L3622.5,142.191L3622.56,142.244L3622.61,142.301L3622.66,142.36L3622.7,142.418L3622.74,142.473L3622.78,142.528L3622.82,142.584L3622.87,142.645L3622.93,142.751L3622.99,142.863L3623.06,142.975L3623.11,143.09L3623.17,143.207L3623.22,143.325L3623.28,143.445L3623.33,143.568L3623.37,143.694L3623.42,143.823L3623.47,143.953L3623.51,144.086L3623.56,144.222L3623.6,144.36L3623.64,144.5L3623.68,144.643L3623.72,144.788L3623.76,144.935L3623.8,145.084L3623.84,145.235L3623.87,145.388L3623.91,145.542L3623.94,145.699L3623.97,145.857L3624,146.016L3624.03,146.176L3624.06,146.337L3624.09,146.499L3624.12,146.663L3624.14,146.826L3624.16,146.991L3624.18,147.156L3624.2,147.321L3624.22,147.487L3624.24,147.653L3624.25,147.819L3624.26,147.984L3624.27,148.149L3624.28,148.314L3624.29,148.479L3624.29,148.643L3624.3,148.807L3624.3,148.969L3624.29,149.131L3624.29,149.293L3624.28,149.454L3624.27,149.614L3624.26,149.772L3624.24,149.93L3624.22,150.088L3624.2,150.243L3624.18,150.394L3624.16,150.477L3624.14,150.555L3624.13,150.631L3624.11,150.706L3624.09,150.783L3624.07,150.862L3624.05,150.938L3624.03,151.014L3624,151.09L3623.98,151.166L3623.95,151.241L3623.92,151.318L3623.89,151.394L3623.86,151.469L3623.82,151.545L3623.79,151.608L3623.74,151.704L3623.7,151.787L3623.67,151.872L3623.63,151.957L3623.59,152.043L3623.56,152.13L3623.52,152.217L3623.49,152.305L3623.45,152.394L3623.42,152.485L3623.39,152.575L3623.36,152.666L3623.33,152.758L3623.3,152.852L3623.27,152.945L3623.24,153.04L3623.22,153.135L3623.19,153.23L3623.17,153.327L3623.14,153.424L3623.12,153.522L3623.09,153.621L3623.07,153.72L3623.05,153.821L3623.03,153.921L3623.01,154.022L3622.99,154.124L3622.97,154.224L3622.93,154.433L3622.9,154.642L3622.86,154.853L3622.83,155.067L3622.8,155.281L3622.78,155.498L3622.75,155.717L3622.72,155.938L3622.7,156.16L3622.68,156.382L3622.63,156.835L3622.59,157.29L3622.54,157.749L3622.49,158.209L3622.47,158.442L3622.45,158.675L3622.42,158.908L3622.39,159.142L3622.36,159.375L3622.33,159.609L3622.29,159.844L3622.25,160.078L3622.21,160.312L3622.17,160.543L3622.14,160.663L3622.12,160.78L3622.1,160.897L3622.07,161.014L3622.04,161.131L3622.01,161.247L3621.99,161.364L3621.96,161.48L3621.93,161.596L3621.89,161.713L3621.86,161.83L3621.82,161.945L3621.79,162.06L3621.75,162.176L3621.71,162.291L3621.67,162.406L3621.63,162.521L3621.59,162.636L3621.54,162.75L3621.49,162.863L3621.45,162.977L3621.4,163.09L3621.35,163.203L3621.29,163.316L3621.24,163.427L3621.18,163.539L3621.12,163.649L3621.06,163.759L3621,163.87L3620.94,163.978L3620.87,164.086L3620.8,164.194L3620.73,164.3L3620.66,164.406L3620.59,164.512L3620.51,164.616L3620.43,164.72L3620.35,164.822L3620.27,164.923L3620.18,165.023L3620.1,165.122L3620.01,165.22L3619.91,165.317L3619.82,165.415L3619.74,165.486L3619.67,165.558L3619.59,165.627L3619.51,165.693L3619.43,165.758L3619.34,165.82L3619.26,165.879L3619.17,165.936L3619.08,165.991L3618.99,166.042L3618.91,166.091L3618.82,166.138L3618.73,166.182L3618.64,166.224L3618.54,166.263L3618.45,166.3L3618.36,166.334L3618.27,166.366L3618.17,166.396L3618.08,166.423L3617.99,166.447L3617.89,166.47L3617.8,166.491L3617.7,166.509L3617.61,166.525L3617.52,166.539L3617.42,166.551L3617.33,166.562L3617.24,166.57L3617.14,166.576L3617.05,166.581L3616.96,166.584L3616.86,166.585L3616.77,166.584L3616.68,166.582L3616.59,166.578L3616.5,166.573L3616.41,166.566L3616.32,166.557L3616.22,166.547L3616.14,166.536L3616.05,166.523L3615.96,166.509L3615.87,166.493L3615.78,166.477L3615.69,166.458L3615.6,166.439L3615.52,166.419L3615.43,166.397L3615.34,166.374L3615.26,166.35L3615.17,166.324L3615.09,166.298L3615,166.27L3614.92,166.242L3614.84,166.212L3614.75,166.181L3614.67,166.149L3614.59,166.117L3614.51,166.083L3614.42,166.048L3614.34,166.012L3614.26,165.976L3614.18,165.938L3614.1,165.899L3614.03,165.86L3613.95,165.82L3613.87,165.778L3613.79,165.736L3613.72,165.693L3613.64,165.649L3613.57,165.604L3613.49,165.558L3613.42,165.512L3613.35,165.465L3613.27,165.416L3613.2,165.368L3613.13,165.317L3613.06,165.267L3612.99,165.216L3612.92,165.163L3612.85,165.11L3612.78,165.056L3612.72,165.002L3612.65,164.946L3612.59,164.889L3612.52,164.832L3612.46,164.774L3612.39,164.716L3612.33,164.657L3612.27,164.596L3612.21,164.534L3612.15,164.472L3612.09,164.41L3612.04,164.346L3611.98,164.281L3611.92,164.215L3611.87,164.149L3611.82,164.082L3611.76,164.013L3611.71,163.945L3611.66,163.874L3611.61,163.802L3611.56,163.731L3611.52,163.658L3611.47,163.583L3611.43,163.508L3611.38,163.433L3611.34,163.355L3611.3,163.277L3611.26,163.198L3611.22,163.118L3611.19,163.034L3611.16,162.952L3611.12,162.87L3611.09,162.784L3611.06,162.696L3611.04,162.608L3611.01,162.52L3610.99,162.432L3610.97,162.34L3610.95,162.247L3610.94,162.154L3610.93,162.062L3610.91,161.966L3610.91,161.869L3610.9,161.771L3610.9,161.696L3610.91,161.579L3610.92,161.462L3610.94,161.346L3610.97,161.233L3611.01,161.122L3611.06,161.015L3611.11,160.912L3611.18,160.813L3611.25,160.72L3611.33,160.633L3611.41,160.552L3611.5,160.478L3611.6,160.412L3611.7,160.353L3611.81,160.302L3611.91,160.26L3612.03,160.226L3612.14,160.202L3612.26,160.187L3612.38,160.18L3612.49,160.183L3612.61,160.195L3612.72,160.217L3612.84,160.247L3612.95,160.286L3613.06,160.334L3613.16,160.389L3613.26,160.453L3613.35,160.525L3613.44,160.603L3613.52,160.688L3613.59,160.779L3613.66,160.876L3613.72,160.977L3613.77,161.083L3613.81,161.193L3613.85,161.305L3613.87,161.42L3613.89,161.536L3613.89,161.654L3613.89,161.682L3613.89,161.694L3613.89,161.702L3613.89,161.714L3613.9,161.725L3613.9,161.736L3613.9,161.748L3613.91,161.764L3613.91,161.78L3613.91,161.796L3613.92,161.812L3613.93,161.829L3613.93,161.851L3613.94,161.872L3613.95,161.891L3613.96,161.914L3613.97,161.938L3613.99,161.962L3614,161.986L3614.01,162.013L3614.03,162.039L3614.05,162.064L3614.06,162.093L3614.08,162.121L3614.1,162.149L3614.12,162.177L3614.14,162.207L3614.17,162.236L3614.19,162.266L3614.22,162.298L3614.24,162.328L3614.27,162.358L3614.3,162.389L3614.33,162.421L3614.36,162.452L3614.39,162.483L3614.42,162.513L3614.45,162.545L3614.48,162.577L3614.52,162.608L3614.55,162.639L3614.59,162.669L3614.63,162.7L3614.66,162.73L3614.7,162.761L3614.74,162.791L3614.78,162.82L3614.82,162.85L3614.86,162.88L3614.9,162.908L3614.94,162.937L3614.99,162.965L3615.03,162.993L3615.07,163.02L3615.11,163.047L3615.16,163.073L3615.2,163.099L3615.25,163.124L3615.29,163.149L3615.34,163.174L3615.39,163.197L3615.43,163.221L3615.48,163.243L3615.52,163.265L3615.57,163.287L3615.62,163.307L3615.66,163.328L3615.71,163.347L3615.76,163.366L3615.81,163.384L3615.85,163.401L3615.9,163.418L3615.95,163.434L3615.99,163.449L3616.04,163.464L3616.09,163.477L3616.13,163.49L3616.18,163.503L3616.22,163.514L3616.27,163.525L3616.32,163.535L3616.36,163.544L3616.4,163.552L3616.45,163.56L3616.49,163.567L3616.53,163.573L3616.58,163.579L3616.62,163.583L3616.66,163.587L3616.7,163.59L3616.74,163.593L3616.78,163.594L3616.82,163.595L3616.86,163.595L3616.89,163.595L3616.93,163.594L3616.97,163.592L3617,163.59L3617.03,163.587L3617.07,163.583L3617.1,163.579L3617.13,163.574L3617.16,163.569L3617.19,163.563L3617.22,163.557L3617.25,163.55L3617.28,163.542L3617.31,163.535L3617.33,163.526L3617.36,163.518L3617.38,163.509L3617.4,163.499L3617.43,163.489L3617.45,163.479L3617.47,163.468L3617.49,163.457L3617.51,163.446L3617.53,163.434L3617.55,163.421L3617.57,163.408L3617.59,163.395L3617.61,163.381L3617.63,163.366L3617.65,163.35L3617.67,163.333L3617.69,163.317L3617.71,163.296L3617.76,163.242L3617.82,163.185L3617.87,163.127L3617.92,163.069L3617.97,163.01L3618.02,162.95L3618.07,162.889L3618.11,162.827L3618.16,162.765L3618.2,162.702L3618.25,162.638L3618.29,162.573L3618.33,162.506L3618.37,162.44L3618.41,162.371L3618.45,162.303L3618.49,162.234L3618.53,162.163L3618.56,162.092L3618.6,162.018L3618.63,161.945L3618.67,161.87L3618.7,161.795L3618.73,161.719L3618.77,161.64L3618.8,161.561L3618.83,161.482L3618.86,161.402L3618.89,161.32L3618.91,161.236L3618.94,161.153L3618.97,161.068L3618.99,160.982L3619.02,160.896L3619.04,160.808L3619.07,160.719L3619.09,160.63L3619.11,160.539L3619.13,160.448L3619.15,160.355L3619.18,160.262L3619.2,160.168L3619.22,160.072L3619.23,159.98L3619.27,159.783L3619.3,159.584L3619.34,159.384L3619.37,159.18L3619.4,158.973L3619.42,158.764L3619.45,158.552L3619.47,158.337L3619.5,158.12L3619.52,157.902L3619.57,157.455L3619.61,157.002L3619.66,156.542L3619.7,156.077L3619.73,155.841L3619.75,155.604L3619.78,155.367L3619.81,155.129L3619.84,154.889L3619.87,154.648L3619.91,154.407L3619.95,154.166L3619.99,153.923L3620.03,153.682L3620.05,153.558L3620.08,153.436L3620.1,153.314L3620.13,153.192L3620.15,153.071L3620.18,152.948L3620.21,152.826L3620.24,152.704L3620.27,152.582L3620.3,152.46L3620.34,152.337L3620.37,152.216L3620.41,152.094L3620.44,151.972L3620.48,151.85L3620.52,151.729L3620.56,151.606L3620.6,151.485L3620.65,151.364L3620.69,151.243L3620.74,151.122L3620.79,151.001L3620.84,150.881L3620.89,150.761L3620.94,150.641L3621,150.521L3621.05,150.402L3621.11,150.296L3621.12,150.272L3621.12,150.259L3621.13,150.242L3621.14,150.225L3621.14,150.207L3621.15,150.184L3621.16,150.16L3621.17,150.134L3621.18,150.106L3621.19,150.076L3621.19,150.047L3621.2,150.014L3621.21,149.978L3621.22,149.941L3621.23,149.903L3621.23,149.87L3621.25,149.782L3621.26,149.692L3621.27,149.599L3621.28,149.501L3621.29,149.397L3621.3,149.29L3621.3,149.18L3621.31,149.066L3621.31,148.949L3621.31,148.828L3621.31,148.705L3621.3,148.58L3621.3,148.453L3621.29,148.323L3621.28,148.192L3621.27,148.059L3621.26,147.926L3621.25,147.792L3621.23,147.657L3621.22,147.521L3621.2,147.384L3621.18,147.249L3621.16,147.112L3621.14,146.977L3621.12,146.842L3621.09,146.707L3621.07,146.574L3621.04,146.441L3621.01,146.311L3620.99,146.182L3620.96,146.055L3620.93,145.93L3620.9,145.807L3620.87,145.686L3620.84,145.568L3620.81,145.453L3620.77,145.342L3620.74,145.234L3620.71,145.129L3620.68,145.029L3620.64,144.933L3620.61,144.841L3620.58,144.755L3620.55,144.674L3620.52,144.599L3620.49,144.529L3620.46,144.465L3620.43,144.409L3620.41,144.362L3620.39,144.321L3620.37,144.29L3620.36,144.277L3620.36,144.275L3620.35,144.267L3620.34,144.257L3620.32,144.248L3620.31,144.239L3620.3,144.229L3620.28,144.222L3620.24,144.196L3620.2,144.171L3620.16,144.146L3620.11,144.12L3620.06,144.093L3620,144.064L3619.93,144.035L3619.87,144.006L3619.8,143.975L3619.64,143.909L3619.48,143.84L3619.31,143.765L3619.21,143.723L3619.12,143.679L3619.02,143.632L3618.92,143.582L3618.82,143.527L3618.71,143.467L3618.6,143.402L3618.5,143.335L3618.44,143.292L3618.38,143.251L3618.34,143.219L3618.31,143.226L3618.27,143.239L3618.22,143.254L3618.17,143.27L3618.12,143.288L3618.07,143.308L3618.02,143.33L3617.96,143.353L3617.9,143.378L3617.85,143.404L3617.79,143.431L3617.73,143.46L3617.67,143.49L3617.61,143.52L3617.55,143.552L3617.49,143.584L3617.43,143.617L3617.37,143.65L3617.32,143.682L3617.2,143.753L3617.09,143.821L3616.98,143.889L3616.89,143.955L3616.8,144.017L3616.72,144.075L3616.65,144.127L3616.62,144.153L3616.57,144.219L3616.51,144.312L3616.45,144.403L3616.38,144.488L3616.31,144.57L3616.24,144.648L3616.17,144.723L3616.11,144.795L3616.04,144.864L3615.97,144.929L3615.9,144.992L3615.83,145.053L3615.76,145.112L3615.69,145.167L3615.62,145.222L3615.55,145.277L3615.43,145.374L3615.3,145.468L3615.17,145.558L3614.94,145.721L3614.83,145.798L3614.73,145.871L3614.64,145.939L3614.55,146.007L3614.51,146.037L3614.47,146.067L3614.44,146.095L3614.41,146.122L3614.37,146.149L3614.35,146.175L3614.32,146.198L3614.3,146.22L3614.28,146.241L3614.26,146.258L3614.25,146.275L3614.24,146.288L3614.23,146.301L3614.22,146.305L3614.22,146.398L3614.2,146.514L3614.18,146.629L3614.15,146.742L3614.11,146.851L3614.05,146.957L3613.99,147.059L3613.93,147.155L3613.86,147.247L3613.77,147.332L3613.69,147.41L3613.59,147.482L3613.49,147.545L3613.39,147.601L3613.28,147.649L3613.17,147.688L3613.06,147.719L3612.95,147.74L3612.83,147.752L3612.71,147.755L3612.59,147.749L3612.48,147.734L3612.36,147.709L3612.25,147.676L3612.14,147.634L3612.03,147.583L3611.93,147.525L3611.84,147.458L3611.75,147.384L3611.66,147.304L3611.58,147.216L3611.51,147.123L3611.45,147.025L3611.39,146.922L3611.34,146.814L3611.3,146.704L3611.27,146.59L3611.25,146.475L3611.24,146.358L3611.24,146.241L3611.24,146.191L3611.24,146.124L3611.24,146.061L3611.25,145.994L3611.26,145.923L3611.27,145.848L3611.29,145.726L3611.31,145.597L3611.35,145.47L3611.39,145.347L3611.43,145.228L3611.48,145.114L3611.53,145.003L3611.59,144.895L3611.64,144.792L3611.7,144.695L3611.77,144.6L3611.83,144.511L3611.9,144.426L3611.97,144.343L3612.03,144.265L3612.1,144.19L3612.17,144.118L3612.24,144.051L3612.31,143.985L3612.38,143.922L3612.45,143.862L3612.52,143.804L3612.59,143.747L3612.65,143.693L3612.72,143.639L3612.85,143.542L3612.98,143.448L3613.1,143.36L3613.22,143.277L3613.44,143.119L3613.54,143.047L3613.64,142.978L3613.73,142.909L3613.77,142.88L3613.8,142.85L3613.84,142.82L3613.87,142.792L3613.9,142.766L3613.93,142.74L3613.96,142.716L3613.98,142.693L3614,142.673L3614.02,142.654L3614.03,142.636L3614.04,142.621L3614.05,142.608L3614.06,142.598L3614.07,142.589L3614.07,142.582L3614.07,142.579L3614.11,142.517L3614.13,142.471L3614.17,142.409L3614.21,142.35L3614.25,142.294L3614.32,142.211L3614.39,142.143L3614.44,142.087L3614.49,142.036L3614.55,141.988L3614.6,141.939L3614.7,141.853L3614.82,141.763L3614.94,141.673L3615.06,141.582L3615.2,141.488L3615.34,141.393L3615.49,141.297L3615.64,141.201L3615.8,141.107L3615.89,141.057L3615.97,141.009L3616.06,140.961L3616.14,140.914L3616.23,140.868L3616.32,140.822L3616.41,140.777L3616.5,140.732L3616.6,140.689L3616.69,140.646L3616.79,140.604L3616.88,140.564L3616.98,140.524L3617.08,140.486L3617.18,140.45L3617.28,140.415L3617.39,140.382L3617.49,140.35L3617.6,140.321L3617.71,140.294L3617.82,140.27L3617.94,140.249L3618.05,140.23L3618.17,140.216L3618.3,140.205L3618.42,140.199L3618.54,140.199L3618.62,140.201Z"/><path d="M3616.26,146.195L3616.32,146.198L3616.38,146.203L3616.44,146.21L3616.49,146.22L3616.56,146.232L3616.62,146.246L3616.67,146.262L3616.73,146.28L3616.79,146.301L3616.85,146.324L3616.9,146.349L3616.96,146.376L3617.02,146.406L3617.07,146.436L3617.12,146.468L3617.16,146.496L3617.28,146.58L3617.4,146.659L3617.52,146.739L3617.65,146.821L3617.91,146.99L3618.04,147.078L3618.18,147.167L3618.31,147.258L3618.45,147.351L3618.58,147.446L3618.65,147.496L3618.71,147.546L3618.78,147.597L3618.84,147.649L3618.91,147.702L3618.97,147.756L3619.04,147.811L3619.1,147.868L3619.16,147.927L3619.22,147.979L3619.26,148.022L3619.3,148.067L3619.3,148.072L3619.33,148.113L3619.36,148.156L3619.39,148.199L3619.39,148.207L3619.42,148.259L3619.45,148.312L3619.46,148.349L3619.49,148.43L3619.52,148.531L3619.53,148.622L3619.55,148.702L3619.56,148.776L3619.56,148.85L3619.57,148.926L3619.57,149.002L3619.58,149.082L3619.58,149.24L3619.58,149.406L3619.58,149.575L3619.58,149.743L3619.58,149.908L3619.57,150.067L3619.56,150.215L3619.56,150.289L3619.55,150.358L3619.54,150.427L3619.53,150.497L3619.52,150.568L3619.51,150.65L3619.48,150.745L3619.45,150.828L3619.43,150.891L3619.37,151.008L3619.33,151.095L3619.29,151.184L3619.26,151.273L3619.22,151.364L3619.19,151.456L3619.16,151.548L3619.13,151.642L3619.1,151.738L3619.07,151.835L3619.05,151.933L3619.03,152.032L3619.01,152.133L3618.99,152.236L3618.97,152.34L3618.95,152.445L3618.93,152.551L3618.92,152.66L3618.91,152.769L3618.89,152.879L3618.88,152.992L3618.87,153.105L3618.86,153.221L3618.86,153.337L3618.85,153.455L3618.85,153.574L3618.84,153.695L3618.84,153.817L3618.83,153.941L3618.83,154.066L3618.83,154.192L3618.83,154.316L3618.83,154.359L3618.83,154.405L3618.84,154.524L3618.84,154.659L3618.85,154.809L3618.86,154.972L3618.87,155.144L3618.88,155.321L3618.88,155.414L3618.88,155.506L3618.88,155.6L3618.88,155.694L3618.88,155.789L3618.88,155.884L3618.87,155.981L3618.86,156.079L3618.85,156.177L3618.84,156.277L3618.82,156.381L3618.8,156.479L3618.78,156.537L3618.76,156.595L3618.75,156.652L3618.72,156.709L3618.7,156.766L3618.68,156.827L3618.64,156.891L3618.61,156.957L3618.6,156.968L3618.6,157.006L3618.61,157.052L3618.63,157.283L3618.64,157.351L3618.64,157.421L3618.65,157.495L3618.65,157.573L3618.66,157.657L3618.66,157.745L3618.65,157.839L3618.64,157.935L3618.63,157.997L3618.62,158.052L3618.61,158.111L3618.59,158.175L3618.57,158.236L3618.55,158.302L3618.51,158.376L3618.48,158.447L3618.44,158.514L3618.39,158.588L3618.33,158.661L3618.28,158.712L3618.2,158.796L3618.14,158.863L3618.08,158.931L3618.02,158.999L3617.96,159.068L3617.9,159.138L3617.78,159.285L3617.66,159.434L3617.59,159.514L3617.52,159.594L3617.45,159.675L3617.37,159.758L3617.29,159.838L3617.25,159.883L3617.2,159.924L3617.15,159.966L3617.1,160.007L3617.05,160.048L3617,160.088L3616.95,160.127L3616.89,160.166L3616.83,160.204L3616.77,160.24L3616.71,160.276L3616.65,160.31L3616.59,160.342L3616.52,160.374L3616.45,160.404L3616.38,160.432L3616.31,160.459L3616.24,160.484L3616.17,160.507L3616.1,160.529L3616.02,160.549L3615.95,160.567L3615.87,160.584L3615.79,160.599L3615.72,160.612L3615.64,160.624L3615.56,160.635L3615.47,160.644L3615.39,160.651L3615.31,160.658L3615.22,160.662L3615.13,160.666L3615.04,160.668L3614.97,160.668L3614.96,160.668L3614.94,160.67L3614.83,160.679L3614.68,160.691L3614.6,160.697L3614.51,160.703L3614.41,160.708L3614.32,160.711L3614.21,160.711L3614.11,160.708L3614.05,160.704L3613.98,160.697L3613.91,160.687L3613.83,160.671L3613.78,160.657L3613.73,160.644L3613.69,160.629L3613.67,160.623L3613.61,160.598L3613.55,160.571L3613.54,160.563L3613.49,160.533L3613.43,160.499L3613.43,160.495L3613.38,160.455L3613.33,160.413L3613.31,160.4L3613.28,160.365L3613.26,160.351L3613.24,160.334L3613.21,160.314L3613.18,160.292L3613.15,160.267L3613.07,160.206L3612.97,160.138L3612.92,160.097L3612.86,160.053L3612.8,160.004L3612.73,159.95L3612.67,159.892L3612.62,159.842L3612.58,159.803L3612.54,159.761L3612.53,159.752L3612.5,159.707L3612.46,159.66L3612.43,159.611L3612.43,159.6L3612.4,159.557L3612.38,159.513L3612.36,159.469L3612.36,159.456L3612.34,159.401L3612.32,159.346L3612.32,159.332L3612.31,159.283L3612.3,159.233L3612.29,159.179L3612.29,159.165L3612.18,159.124L3612.12,159.1L3612.04,159.065L3612,159.04L3611.95,159.01L3611.9,158.976L3611.85,158.94L3611.85,158.937L3611.8,158.893L3611.75,158.846L3611.71,158.797L3611.67,158.744L3611.63,158.689L3611.6,158.631L3611.57,158.572L3611.54,158.51L3611.52,158.447L3611.52,158.446L3611.5,158.38L3611.49,158.313L3611.48,158.245L3611.48,158.177L3611.48,158.108L3611.49,158.04L3611.5,157.972L3611.51,157.906L3611.53,157.84L3611.56,157.776L3611.59,157.714L3611.62,157.654L3611.66,157.597L3611.7,157.542L3611.74,157.49L3611.79,157.441L3611.79,157.44L3611.84,157.394L3611.9,157.351L3611.96,157.313L3612.02,157.278L3612.08,157.248L3612.15,157.223L3612.21,157.202L3612.28,157.186L3612.35,157.174L3612.35,157.174L3612.42,157.167L3612.49,157.166L3612.56,157.169L3612.63,157.177L3612.7,157.19L3612.77,157.207L3612.83,157.23L3612.9,157.256L3612.96,157.287L3612.96,157.288L3613.02,157.312L3613.17,157.369L3613.25,157.406L3613.35,157.446L3613.44,157.491L3613.54,157.538L3613.59,157.568L3613.64,157.597L3613.7,157.629L3613.76,157.666L3613.82,157.705L3613.88,157.751L3613.94,157.805L3613.99,157.845L3614.03,157.888L3614.07,157.934L3614.08,157.944L3614.11,157.989L3614.15,158.037L3614.18,158.086L3614.18,158.097L3614.21,158.139L3614.23,158.183L3614.25,158.227L3614.25,158.24L3614.27,158.295L3614.29,158.351L3614.29,158.365L3614.3,158.414L3614.31,158.464L3614.32,158.517L3614.33,158.602L3614.33,158.659L3614.38,158.697L3614.4,158.713L3614.46,158.709L3614.53,158.704L3614.67,158.692L3614.8,158.682L3614.87,158.677L3614.93,158.675L3615.01,158.675L3615.07,158.674L3615.13,158.671L3615.18,158.669L3615.23,158.665L3615.27,158.661L3615.32,158.656L3615.36,158.651L3615.4,158.645L3615.43,158.638L3615.47,158.632L3615.5,158.625L3615.53,158.618L3615.56,158.61L3615.58,158.603L3615.61,158.595L3615.63,158.587L3615.65,158.579L3615.67,158.572L3615.69,158.564L3615.7,158.556L3615.72,158.547L3615.74,158.539L3615.75,158.53L3615.76,158.52L3615.78,158.511L3615.8,158.5L3615.81,158.49L3615.83,158.478L3615.84,158.466L3615.86,158.453L3615.87,158.438L3615.89,158.423L3615.9,158.409L3615.94,158.369L3615.98,158.327L3616.03,158.279L3616.07,158.225L3616.12,158.166L3616.23,158.029L3616.36,157.876L3616.43,157.791L3616.5,157.702L3616.58,157.611L3616.65,157.531L3616.65,157.488L3616.64,157.377L3616.63,157.257L3616.62,157.189L3616.61,157.119L3616.61,157.045L3616.6,156.966L3616.6,156.883L3616.6,156.795L3616.61,156.699L3616.62,156.607L3616.63,156.546L3616.64,156.488L3616.65,156.429L3616.67,156.365L3616.69,156.3L3616.71,156.234L3616.74,156.167L3616.78,156.096L3616.82,156.022L3616.87,155.953L3616.87,155.93L3616.88,155.887L3616.88,155.84L3616.89,155.787L3616.89,155.728L3616.89,155.665L3616.89,155.599L3616.89,155.531L3616.89,155.458L3616.89,155.386L3616.88,155.233L3616.87,155.078L3616.86,154.921L3616.85,154.766L3616.85,154.614L3616.84,154.469L3616.84,154.393L3616.84,154.322L3616.84,154.18L3616.84,154.042L3616.84,153.905L3616.84,153.767L3616.85,153.63L3616.85,153.493L3616.86,153.356L3616.87,153.219L3616.88,153.083L3616.89,152.948L3616.9,152.811L3616.91,152.676L3616.93,152.54L3616.94,152.405L3616.96,152.27L3616.98,152.136L3617,152.001L3617.03,151.867L3617.05,151.733L3617.08,151.6L3617.11,151.466L3617.15,151.333L3617.18,151.201L3617.22,151.069L3617.26,150.937L3617.31,150.805L3617.35,150.674L3617.4,150.544L3617.45,150.415L3617.51,150.286L3617.57,150.161L3617.57,150.128L3617.57,150.081L3617.58,149.966L3617.59,149.838L3617.59,149.7L3617.59,149.558L3617.59,149.417L3617.59,149.283L3617.59,149.195L3617.55,149.169L3617.51,149.133L3617.46,149.096L3617.41,149.06L3617.3,148.982L3617.19,148.904L3617.07,148.824L3616.95,148.743L3616.82,148.66L3616.56,148.491L3616.43,148.405L3616.29,148.316L3616.16,148.226L3616.15,148.217L3616.12,148.229L3616.09,148.245L3616.06,148.264L3616.03,148.284L3615.99,148.307L3615.95,148.333L3615.91,148.361L3615.86,148.391L3615.82,148.423L3615.78,148.455L3615.68,148.53L3615.57,148.608L3615.36,148.78L3615.24,148.871L3615.12,148.963L3615,149.057L3614.87,149.15L3614.81,149.198L3614.74,149.245L3614.67,149.291L3614.6,149.337L3614.53,149.382L3614.46,149.426L3614.38,149.469L3614.3,149.511L3614.22,149.552L3614.14,149.592L3614.06,149.629L3613.97,149.665L3613.88,149.698L3613.79,149.728L3613.7,149.756L3613.6,149.779L3613.49,149.799L3613.39,149.812L3613.33,149.818L3613.28,149.822L3613.22,149.825L3613.18,149.825L3613.11,149.824L3613.04,149.818L3612.97,149.806L3612.91,149.791L3612.84,149.77L3612.78,149.745L3612.71,149.715L3612.65,149.681L3612.59,149.643L3612.54,149.601L3612.49,149.555L3612.44,149.506L3612.39,149.454L3612.35,149.398L3612.31,149.339L3612.28,149.278L3612.25,149.215L3612.22,149.15L3612.2,149.084L3612.19,149.016L3612.18,148.947L3612.17,148.878L3612.17,148.808L3612.18,148.739L3612.18,148.67L3612.2,148.602L3612.22,148.535L3612.24,148.469L3612.27,148.405L3612.3,148.343L3612.33,148.284L3612.37,148.227L3612.42,148.173L3612.47,148.122L3612.52,148.075L3612.57,148.031L3612.63,147.991L3612.69,147.956L3612.75,147.924L3612.81,147.897L3612.88,147.875L3612.95,147.857L3613.01,147.844L3613.08,147.836L3613.15,147.833L3613.16,147.832L3613.17,147.831L3613.18,147.83L3613.19,147.827L3613.21,147.823L3613.23,147.816L3613.25,147.808L3613.27,147.798L3613.3,147.785L3613.33,147.77L3613.37,147.753L3613.4,147.733L3613.44,147.711L3613.48,147.687L3613.52,147.66L3613.57,147.632L3613.61,147.602L3613.66,147.57L3613.7,147.537L3613.8,147.463L3613.91,147.384L3614.01,147.302L3614.12,147.215L3614.35,147.036L3614.47,146.943L3614.59,146.853L3614.66,146.805L3614.72,146.76L3614.78,146.715L3614.85,146.67L3614.92,146.626L3614.99,146.582L3615.06,146.539L3615.13,146.498L3615.21,146.457L3615.29,146.418L3615.37,146.381L3615.45,146.346L3615.54,146.313L3615.63,146.282L3615.73,146.255L3615.83,146.232L3615.93,146.214L3616.03,146.202L3616.09,146.197L3616.15,146.195L3616.2,146.194L3616.26,146.195ZM3616.96,155.845L3616.96,155.845L3616.97,155.837L3616.96,155.845Z"/></g></g></g></svg>