<?xml version="1.0" encoding="UTF-8" standalone="no"?><!DOCTYPE svg PUBLIC "-//W3C//DTD SVG 1.1//EN" "http://www.w3.org/Graphics/SVG/1.1/DTD/svg11.dtd"><svg width="100%" height="100%" viewBox="0 0 127 106" version="1.1" xmlns="http://www.w3.org/2000/svg" xmlns:xlink="http://www.w3.org/1999/xlink" xml:space="preserve" xmlns:serif="http://www.serif.com/" style="fill-rule:evenodd;clip-rule:evenodd;stroke-linejoin:round;stroke-miterlimit:1.41421;"><path id="Twitter-Icon" serif:id="Twitter Icon" d="M113.713,26.323c0.048,1.144 0.065,2.292 0.065,3.45c0,35.256 -26.138,75.911 -73.94,75.911c-14.682,0 -28.334,-4.407 -39.838,-11.993c2.033,0.253 4.097,0.37 6.195,0.37c12.176,0 23.384,-4.256 32.283,-11.422c-11.373,-0.199 -20.976,-7.921 -24.286,-18.519c1.589,0.316 3.228,0.486 4.9,0.486c2.36,0 4.653,-0.334 6.849,-0.938c-11.896,-2.457 -20.86,-13.241 -20.86,-26.158c0,-0.138 0,-0.236 0,-0.336c3.506,1.983 7.521,3.194 11.782,3.33c-6.98,-4.795 -11.569,-12.952 -11.569,-22.204c0,-4.895 1.278,-9.469 3.523,-13.421c12.815,16.147 31.973,26.759 53.57,27.888c-0.443,-1.953 -0.671,-4.006 -0.671,-6.089c0,-14.735 11.634,-26.678 25.99,-26.678c7.472,0 14.224,3.245 18.96,8.426c5.932,-1.194 11.487,-3.413 16.519,-6.474c-1.952,6.221 -6.064,11.453 -11.44,14.75c5.261,-0.622 10.276,-2.069 14.93,-4.189c-3.49,5.349 -7.883,10.041 -12.962,13.81Z" style="fill:#00a1dc;"/></svg>